<?xml version="1.0" encoding="UTF-8"?>
<svg version="1.1" xmlns="http://www.w3.org/2000/svg" width="2480" height="2480">
<path d="M0 0 C3.32236596 0.00543448 6.64472481 0.00780565 9.96709442 0.00987244 C40.57768154 0.03955643 71.0475427 0.331438 101.55431366 3.09324646 C104.13516573 3.32214687 106.71691361 3.53355311 109.29967499 3.73973083 C203.05029402 11.24550362 296.48417095 29.86647311 410.08678436 67.31785583 C410.76978607 67.55310974 411.45278778 67.78836365 412.15648651 68.03074646 C476.23556937 90.10773916 538.68276364 117.67029879 598.08678436 150.31785583 C599.21519745 150.93370544 600.34361053 151.54955505 601.50621796 152.18406677 C623.63518085 164.26584529 645.27910987 177.088426 666.5154953 190.67674255 C669.41158487 192.52515825 672.31549395 194.36096378 675.21959686 196.19676208 C686.67593309 203.45738089 697.95265871 210.86894313 708.95738983 218.79637146 C712.08991476 221.03460757 715.25420826 223.22641729 718.41613007 225.4228363 C739.76694347 240.26827576 760.41569015 255.96544444 780.54381561 272.42723083 C783.43434491 274.79102787 786.34747876 277.12403401 789.27428436 279.44285583 C794.73051725 283.79691146 800.04765949 288.31233925 805.35729218 292.84275818 C807.11667314 294.34334821 808.87901735 295.84040891 810.64147186 297.33738708 C817.07959286 302.81796728 823.41774842 308.37993915 829.64928436 314.09519958 C831.72951161 315.99207347 833.83235334 317.85178526 835.96178436 319.69285583 C841.13987969 324.2001048 846.15799831 328.88049501 851.18639374 333.55290222 C852.41310151 334.692185 853.64058494 335.83063344 854.86901093 336.96806335 C864.93003429 346.28934609 874.75164519 355.82438505 884.43566132 365.53636169 C886.67563622 367.78177163 888.92101133 370.02168423 891.16686249 372.26121521 C892.62095978 373.7159723 894.07474739 375.17103902 895.52819061 376.62644958 C896.18557724 377.28181198 896.84296387 377.93717438 897.5202713 378.61239624 C901.33476744 382.44602247 904.96439511 386.38600095 908.4794693 390.49645996 C910.11428973 392.34902468 911.82287603 394.08847121 913.58678436 395.81785583 C916.57912812 398.76385798 919.34002609 401.84768591 922.07897186 405.02879333 C924.03033621 407.25350055 926.02846892 409.42938849 928.04113007 411.59861755 C932.84915913 416.78259665 937.40528537 422.09235709 941.84069061 427.60301208 C944.17509026 430.42459079 946.60669035 433.12376295 949.08678436 435.81785583 C953.98052668 441.14759977 958.54785752 446.68555834 963.08678436 452.31785583 C964.08447241 453.53613147 965.08323347 454.7535289 966.08287811 455.97019958 C973.40426961 464.89714961 980.48947242 473.97969656 987.46178436 483.18113708 C989.07810733 485.30644637 990.70538858 487.42285024 992.33678436 489.53660583 C1000.13363506 499.64732282 1007.69193522 509.90964895 1015.08678436 520.31785583 C1015.65010468 521.11062927 1016.21342499 521.90340271 1016.79381561 522.72019958 C1037.14695202 551.43512116 1056.23790136 580.98366276 1074.08678436 611.31785583 C1074.70408417 612.36554138 1075.32138397 613.41322693 1075.95738983 614.49266052 C1085.4360363 630.62684188 1094.44360233 646.99250753 1103.15575409 663.55082703 C1104.07768614 665.30058805 1105.00360294 667.04824765 1105.9295578 668.79588318 C1142.61227215 738.11470729 1171.95403882 811.73067177 1242.28990936 1157.40379333 C1242.38955742 1158.74247467 1242.38955742 1158.74247467 1242.49121857 1160.10820007 C1243.73084164 1177.56363582 1244.25326289 1194.98963373 1244.28990936 1212.48582458 C1244.29688725 1214.56239848 1244.30392822 1216.63897217 1244.31102753 1218.71554565 C1244.33030126 1225.31215175 1244.33520271 1231.90872464 1244.33678436 1238.50535583 C1244.3373735 1239.62728081 1244.33796265 1240.74920578 1244.33856964 1241.90512848 C1244.35045701 1273.95067277 1244.20285024 1305.84652963 1241.31139374 1337.78538513 C1241.08249333 1340.3662372 1240.87108709 1342.94798508 1240.66490936 1345.53074646 C1237.06889395 1390.44666392 1230.63801471 1435.08724405 1222.08678436 1479.31785583 C1221.93249969 1480.1197937 1221.77821503 1480.92173157 1221.61925507 1481.74797058 C1210.97948402 1536.87809511 1196.12151064 1591.17829478 1177.80492401 1644.23698425 C1177.10153681 1646.27510936 1176.40109218 1648.31422698 1175.70104218 1650.35350037 C1161.49214193 1691.65650924 1144.74926769 1732.04556645 1125.96440887 1771.47471619 C1125.04378327 1773.40816442 1124.1260095 1775.3429514 1123.20836639 1777.27781677 C1114.03318098 1796.59745003 1104.38227368 1815.56854471 1094.08678436 1834.31785583 C1093.46948456 1835.44916931 1092.85218475 1836.58048279 1092.21617889 1837.74607849 C1080.13576955 1859.87200397 1067.31441985 1881.51298562 1053.72789764 1902.74656677 C1051.87948195 1905.64265634 1050.04367642 1908.54656542 1048.20787811 1911.45066833 C1040.94725931 1922.90700456 1033.53569707 1934.18373018 1025.60826874 1945.1884613 C1023.37003262 1948.32098624 1021.17822291 1951.48527973 1018.98180389 1954.64720154 C1004.13636444 1975.99801494 988.43919576 1996.64676163 971.97740936 2016.77488708 C969.61361233 2019.66541638 967.28060619 2022.57855023 964.96178436 2025.50535583 C960.60772873 2030.96158873 956.09230095 2036.27873096 951.56188202 2041.58836365 C950.06129199 2043.34774461 948.56423129 2045.11008883 947.06725311 2046.87254333 C941.58667292 2053.31066433 936.02470105 2059.64881989 930.30944061 2065.88035583 C928.41256672 2067.96058309 926.55285493 2070.06342481 924.71178436 2072.19285583 C920.2045354 2077.37095116 915.52414519 2082.38906978 910.85173798 2087.41746521 C909.7124552 2088.64417298 908.57400676 2089.87165641 907.43657684 2091.1000824 C898.11529411 2101.16110576 888.58025514 2110.98271666 878.8682785 2120.66673279 C876.62286856 2122.9067077 874.38295597 2125.1520828 872.14342499 2127.39793396 C870.6886679 2128.85203125 869.23360118 2130.30581886 867.77819061 2131.75926208 C867.12282822 2132.41664871 866.46746582 2133.07403534 865.79224396 2133.75134277 C861.95861773 2137.56583891 858.01863924 2141.19546658 853.90818024 2144.71054077 C852.05561551 2146.3453612 850.31616899 2148.0539475 848.58678436 2149.81785583 C845.64078222 2152.81019959 842.55695429 2155.57109756 839.37584686 2158.31004333 C837.15113965 2160.26140768 834.97525171 2162.2595404 832.80602264 2164.27220154 C827.62204355 2169.0802306 822.31228311 2173.63635684 816.80162811 2178.07176208 C813.98004941 2180.40616173 811.28087725 2182.83776182 808.58678436 2185.31785583 C803.25704043 2190.21159815 797.71908186 2194.77892899 792.08678436 2199.31785583 C790.86850873 2200.31554388 789.65111129 2201.31430494 788.43444061 2202.31394958 C779.50749058 2209.63534108 770.42494364 2216.72054389 761.22350311 2223.69285583 C759.09819382 2225.3091788 756.98178995 2226.93646005 754.86803436 2228.56785583 C744.75731738 2236.36470653 734.49499124 2243.92300669 724.08678436 2251.31785583 C723.29401093 2251.88117615 722.50123749 2252.44449646 721.68444061 2253.02488708 C692.97018844 2273.37754902 663.42369631 2292.47481391 633.08678436 2310.31785583 C632.02846405 2310.94047302 630.97014374 2311.56309021 629.87975311 2312.20457458 C613.81729938 2321.6245142 597.56441695 2330.64550556 581.08678436 2339.31785583 C580.15029053 2339.8115567 580.15029053 2339.8115567 579.19487762 2340.31523132 C511.03536874 2376.22585313 439.4210872 2405.37701303 11.0372926 2479.83213168 C5.63213902 2479.81704644 0.2272788 2479.82250438 -5.17786407 2479.83934021 C-102.80896519 2480.13541682 -199.36548165 2468.76964934 -401.91321564 2413.31785583 C-402.59621735 2413.08260193 -403.27921906 2412.84734802 -403.98291779 2412.60496521 C-468.06200065 2390.52797251 -530.50919491 2362.96541288 -589.91321564 2330.31785583 C-591.04162872 2329.70200623 -592.17004181 2329.08615662 -593.33264923 2328.4516449 C-615.46161213 2316.36986638 -637.10554114 2303.54728567 -658.34192657 2289.95896912 C-661.23801615 2288.11055342 -664.14192522 2286.27474789 -667.04602814 2284.43894958 C-678.50236436 2277.17833078 -689.77908999 2269.76676854 -700.78382111 2261.83934021 C-703.91634604 2259.6011041 -707.08063953 2257.40929438 -710.24256134 2255.21287537 C-731.59337474 2240.36743591 -752.24212143 2224.67026723 -772.37024689 2208.20848083 C-775.26077618 2205.8446838 -778.17391004 2203.51167766 -781.10071564 2201.19285583 C-786.55694853 2196.83880021 -791.87409076 2192.32337242 -797.18372345 2187.79295349 C-798.94310441 2186.29236346 -800.70544863 2184.79530276 -802.46790314 2183.29832458 C-808.90602414 2177.81774439 -815.24417969 2172.25577252 -821.47571564 2166.54051208 C-823.55594289 2164.6436382 -825.65878461 2162.78392641 -827.78821564 2160.94285583 C-832.96631096 2156.43560687 -837.98442959 2151.75521666 -843.01282501 2147.08280945 C-844.23953278 2145.94352667 -845.46701621 2144.80507823 -846.6954422 2143.66764832 C-856.75646557 2134.34636558 -866.57807646 2124.81132662 -876.26209259 2115.09934998 C-878.5020675 2112.85394004 -880.7474426 2110.61402744 -882.99329376 2108.37449646 C-884.44739106 2106.91973937 -885.90117866 2105.46467265 -887.35462189 2104.00926208 C-888.01200851 2103.35389969 -888.66939514 2102.69853729 -889.34670258 2102.02331543 C-893.16119872 2098.1896892 -896.79082638 2094.24971072 -900.30590057 2090.13925171 C-901.940721 2088.28668699 -903.6493073 2086.54724046 -905.41321564 2084.81785583 C-908.40555939 2081.87185369 -911.16645736 2078.78802576 -913.90540314 2075.60691833 C-915.85676749 2073.38221112 -917.8549002 2071.20632318 -919.86756134 2069.03709412 C-924.67559041 2063.85311502 -929.23171665 2058.54335458 -933.66712189 2053.03269958 C-936.00152153 2050.21112088 -938.43312162 2047.51194872 -940.91321564 2044.81785583 C-945.80695795 2039.4881119 -950.37428879 2033.95015333 -954.91321564 2028.31785583 C-955.91090369 2027.0995802 -956.90966474 2025.88218277 -957.90930939 2024.66551208 C-965.23070088 2015.73856206 -972.31590369 2006.65601511 -979.28821564 1997.45457458 C-980.90453861 1995.3292653 -982.53181986 1993.21286143 -984.16321564 1991.09910583 C-991.96006634 1980.98838885 -999.51836649 1970.72606271 -1006.91321564 1960.31785583 C-1007.75819611 1959.12869568 -1007.75819611 1959.12869568 -1008.62024689 1957.91551208 C-1028.9733833 1929.20059051 -1048.06433264 1899.65204891 -1065.91321564 1869.31785583 C-1066.53051544 1868.27017029 -1067.14781525 1867.22248474 -1067.78382111 1866.14305115 C-1077.26246757 1850.00886979 -1086.27003361 1833.64320414 -1094.98218536 1817.08488464 C-1095.90411741 1815.33512362 -1096.83003421 1813.58746402 -1097.75598907 1811.83982849 C-1134.43870343 1742.52100438 -1163.78047009 1668.9050399 -1234.11634064 1323.23191833 C-1234.18277267 1322.33946411 -1234.24920471 1321.44700989 -1234.31764984 1320.5275116 C-1235.55727292 1303.07207585 -1236.07969416 1285.64607794 -1236.11634064 1268.14988708 C-1236.12331852 1266.07331319 -1236.13035949 1263.9967395 -1236.1374588 1261.92016602 C-1236.15673254 1255.32355992 -1236.16163398 1248.72698703 -1236.16321564 1242.13035583 C-1236.16380478 1241.00843086 -1236.16439392 1239.88650589 -1236.16500092 1238.73058319 C-1236.17688828 1206.6850389 -1236.02928151 1174.78918204 -1233.13782501 1142.85032654 C-1232.90892461 1140.26947447 -1232.69751836 1137.68772659 -1232.49134064 1135.10496521 C-1228.89532523 1090.18904775 -1222.46444599 1045.54846762 -1213.91321564 1001.31785583 C-1213.75893097 1000.51591797 -1213.6046463 999.7139801 -1213.44568634 998.88774109 C-1202.66324344 943.01836031 -1187.48908279 888.0770913 -1168.91321564 834.31785583 C-1168.67796173 833.63485413 -1168.44270782 832.95185242 -1168.20032501 832.24815369 C-1146.12333231 768.16907082 -1118.56077268 705.72187656 -1085.91321564 646.31785583 C-1084.98944122 644.62523621 -1084.98944122 644.62523621 -1084.0470047 642.89842224 C-1071.96522618 620.76945935 -1059.14264547 599.12553033 -1045.55432892 577.8891449 C-1043.70591322 574.99305533 -1041.87010769 572.08914625 -1040.03430939 569.18504333 C-1032.77369058 557.72870711 -1025.36212835 546.45198149 -1017.43470001 535.44725037 C-1015.1964639 532.31472543 -1013.00465419 529.15043194 -1010.80823517 525.98851013 C-995.96279572 504.63769673 -980.26562703 483.98895004 -963.80384064 463.86082458 C-961.4400436 460.97029529 -959.10703747 458.05716144 -956.78821564 455.13035583 C-952.43416001 449.67412294 -947.91873222 444.35698071 -943.38831329 439.04734802 C-941.88772326 437.28796706 -940.39066256 435.52562284 -938.89368439 433.76316833 C-933.41310419 427.32504734 -927.85113233 420.98689178 -922.13587189 414.75535583 C-920.238998 412.67512858 -918.37928621 410.57228686 -916.53821564 408.44285583 C-912.03096667 403.26476051 -907.35057646 398.24664189 -902.67816925 393.21824646 C-901.53888647 391.99153869 -900.40043803 390.76405526 -899.26300812 389.53562927 C-889.94172538 379.47460591 -880.40668642 369.65299501 -870.69470978 359.96897888 C-868.44929984 357.72900397 -866.20938724 355.48362887 -863.96985626 353.23777771 C-862.51509917 351.78368042 -861.06003246 350.32989281 -859.60462189 348.87644958 C-858.94925949 348.21906296 -858.29389709 347.56167633 -857.61867523 346.8843689 C-853.78504901 343.06987276 -849.84507052 339.44024509 -845.73461151 335.9251709 C-843.88204679 334.29035047 -842.14260026 332.58176417 -840.41321564 330.81785583 C-837.46721349 327.82551208 -834.38338556 325.06461411 -831.20227814 322.32566833 C-828.97757092 320.37430399 -826.80168298 318.37617127 -824.63245392 316.36351013 C-819.44847482 311.55548107 -814.13871438 306.99935483 -808.62805939 302.56394958 C-805.80648069 300.22954994 -803.10730852 297.79794985 -800.41321564 295.31785583 C-795.08347171 290.42411352 -789.54551313 285.85678268 -783.91321564 281.31785583 C-782.69494001 280.32016779 -781.47754257 279.32140673 -780.26087189 278.32176208 C-771.33392186 271.00037059 -762.25137491 263.91516778 -753.04993439 256.94285583 C-750.9246251 255.32653287 -748.80822123 253.69925162 -746.69446564 252.06785583 C-736.58374865 244.27100514 -726.32142252 236.71270498 -715.91321564 229.31785583 C-715.1204422 228.75453552 -714.32766876 228.19121521 -713.51087189 227.61082458 C-684.79595031 207.25768817 -655.24740871 188.16673884 -624.91321564 170.31785583 C-623.86553009 169.70055603 -622.81784454 169.08325623 -621.73841095 168.44725037 C-605.6059703 158.96962655 -589.24402536 149.96317797 -572.68671417 141.25212097 C-570.92412653 140.32360361 -569.16353652 139.39129743 -567.40296173 138.45896912 C-498.71515962 102.13194312 -425.82522645 73.03464645 0 0 Z " fill="#FEFEFE" transform="translate(1235.913215637207,0.6821441650390625)"/>
<path d="M0 0 C3.25274501 1.95164701 5.74139662 3.46772818 8.5 5.875 C9.0465625 6.34679687 9.593125 6.81859375 10.15625 7.3046875 C11.58178339 8.61545337 12.96772945 9.96934773 14.3359375 11.33984375 C17.20017368 14.19988017 20.14153097 16.95327339 23.125 19.6875 C23.64964844 20.17283203 24.17429687 20.65816406 24.71484375 21.15820312 C27.06509902 23.31508296 29.33937022 25.22624681 32 27 C32 27.66 32 28.32 32 29 C32.66 29 33.32 29 34 29 C35.12419779 30.08906661 36.24006034 31.18747433 37.32421875 32.31640625 C42.24820428 37.26334742 47.6069648 41.79983791 52.875 46.375 C56.84408375 49.82987047 60.71177427 53.39257235 64.58203125 56.95703125 C67.31418615 59.46896208 70.06482087 61.95076821 72.875 64.375 C77.45473335 68.33375255 81.84947033 72.49389885 86.25341797 76.64599609 C86.83752441 77.19336426 87.42163086 77.74073242 88.0234375 78.3046875 C88.54856934 78.79952637 89.07370117 79.29436523 89.61474609 79.80419922 C91.00930819 81.10712552 91.00930819 81.10712552 93 82 C93 82.66 93 83.32 93 84 C93.66 84 94.32 84 95 84 C95 84.66 95 85.32 95 86 C95.55558594 86.2371875 96.11117187 86.474375 96.68359375 86.71875 C99.54371121 88.3007374 101.66948669 90.27662715 104.0625 92.5 C106.65920335 94.90536731 109.05106306 97.03404204 112 99 C112 99.66 112 100.32 112 101 C113.485 101.495 113.485 101.495 115 102 C115 102.66 115 103.32 115 104 C115.84111328 104.36351562 115.84111328 104.36351562 116.69921875 104.734375 C119.46085633 106.2535101 121.50031442 108.10895257 123.8125 110.25 C126.86263916 113.05612803 129.92786694 115.80035359 133.125 118.4375 C134.07375 119.283125 135.0225 120.12875 136 121 C136 121.66 136 122.32 136 123 C136.53367187 123.21527344 137.06734375 123.43054688 137.6171875 123.65234375 C140.87929928 125.49730861 143.42644673 127.9977232 146.125 130.5625 C147.29127519 131.65406426 148.45794544 132.74520656 149.625 133.8359375 C150.19863281 134.37444336 150.77226563 134.91294922 151.36328125 135.46777344 C156.93624357 140.68494401 162.60997568 145.7198175 168.5625 150.5 C172.90504941 154.00814651 176.80017208 157.75160557 180.6875 161.75 C183.17713352 164.17234613 185.78800038 166.3304003 188.5 168.5 C192.92215656 172.04019228 196.91098621 175.80383416 200.86328125 179.85546875 C204.94126289 183.94836074 209.19002359 187.79334906 214 191 C214 191.66 214 192.32 214 193 C214.53882813 193.22042969 215.07765625 193.44085937 215.6328125 193.66796875 C218.79178343 195.4455415 221.26249777 197.83490028 223.875 200.3125 C224.89193052 201.26831066 225.91015826 202.22274305 226.9296875 203.17578125 C227.42952148 203.6445166 227.92935547 204.11325195 228.44433594 204.59619141 C230.04414538 206.03983615 231.70045111 207.38448085 233.3828125 208.73046875 C234.24648438 209.47941406 235.11015625 210.22835938 236 211 C236 211.66 236 212.32 236 213 C236.55945313 213.24105469 237.11890625 213.48210937 237.6953125 213.73046875 C240.48153854 215.26525428 242.54264415 217.15089294 244.875 219.3125 C247.73351281 221.94267007 250.58473299 224.51976385 253.625 226.9375 C254.40875 227.618125 255.1925 228.29875 256 229 C256 229.66 256 230.32 256 231 C256.55558594 231.2371875 257.11117188 231.474375 257.68359375 231.71875 C260.54371121 233.3007374 262.66948669 235.27662715 265.0625 237.5 C267.65920335 239.90536731 270.05106306 242.03404204 273 244 C273 244.66 273 245.32 273 246 C273.66 246 274.32 246 275 246 C276.70921109 247.6230074 278.367253 249.30009036 280 251 C281.99427903 252.98696911 284.0225245 254.93509877 286.0625 256.875 C286.57876953 257.38546875 287.09503906 257.8959375 287.62695312 258.421875 C290.41792924 261.16392989 290.41792924 261.16392989 294.0703125 262.11328125 C296.77782193 260.55125658 298.66179532 258.57836052 300.8125 256.3125 C304.72162079 252.28789558 308.59958755 248.48365986 313 245 C313.66 245 314.32 245 315 245 C315 244.34 315 243.68 315 243 C316.3984375 241.58984375 316.3984375 241.58984375 318.375 239.9375 C321.62941067 237.17182591 324.83413833 234.36691808 328 231.5 C330.93678465 228.84886006 333.88602542 226.21709829 336.875 223.625 C340.84252724 220.17148439 344.7084764 216.6099606 348.57763672 213.04736328 C351.96309634 209.93538983 355.39597083 206.88971212 358.87109375 203.87890625 C361.63749517 201.43736665 364.34875406 198.93713464 367.0625 196.4375 C379.51256372 185 379.51256372 185 382 185 C382.26192139 184.4030835 382.52384277 183.80616699 382.79370117 183.19116211 C384.0698793 180.87306887 385.28495735 179.63303579 387.30078125 177.94140625 C387.94853516 177.39033203 388.59628906 176.83925781 389.26367188 176.27148438 C389.93978516 175.70751953 390.61589844 175.14355469 391.3125 174.5625 C395.72027625 170.84731322 399.93342129 167.0920346 404 163 C406.50728928 160.71006305 409.06219166 158.47744084 411.625 156.25 C412.29273438 155.66089844 412.96046875 155.07179688 413.6484375 154.46484375 C414.29296875 153.90410156 414.9375 153.34335937 415.6015625 152.765625 C416.47288818 152.00427246 416.47288818 152.00427246 417.36181641 151.22753906 C419 150 419 150 422 149 C422.66782785 147.66724789 423.33427779 146.33380514 424 145 C425.48634376 143.50536808 427.03592167 142.07240882 428.625 140.6875 C429.98044922 139.49640625 429.98044922 139.49640625 431.36328125 138.28125 C432.23339844 137.5284375 433.10351562 136.775625 434 136 C439.49736966 131.2291072 444.88036317 126.35620341 450.2175293 121.4074707 C453.74915552 118.13847231 457.32338641 114.93180835 460.96484375 111.78515625 C464.49110679 108.6920618 467.93309608 105.50576554 471.38671875 102.33203125 C473.85908962 100.12574514 476.40900967 98.06400924 479 96 C480.0828125 94.9171875 480.0828125 94.9171875 481.1875 93.8125 C486.81644466 88.18355534 492.78682623 82.97053901 499 78 C500.0828125 76.9171875 500.0828125 76.9171875 501.1875 75.8125 C506.81644466 70.18355534 512.78682623 64.97053901 519 60 C519.721875 59.278125 520.44375 58.55625 521.1875 57.8125 C526.50724649 52.49275351 532.19628441 47.55682815 537.875 42.625 C541.84330549 39.17080696 545.71012559 35.60869442 549.57983398 32.04516602 C552.33438092 29.512893 555.10725075 27.00979797 557.9375 24.5625 C562.16937159 20.89961955 566.25810138 17.08449391 570.34545898 13.26196289 C573.46357591 10.36029616 576.66234641 7.650658 580 5 C581.36125 3.63875 581.36125 3.63875 582.75 2.25 C583.4925 1.5075 584.235 0.765 585 0 C585.33 0 585.66 0 586 0 C586 376.86 586 753.72 586 1142 C392.62 1142 199.24 1142 0 1142 C0 765.14 0 388.28 0 0 Z " fill="#D6D6D5" transform="translate(627,859)"/>
<path d="M0 0 C9.00680272 0 9.00680272 0 12.59375 0.734375 C13.78508545 0.97401978 13.78508545 0.97401978 15.00048828 1.21850586 C15.82532715 1.39389893 16.65016602 1.56929199 17.5 1.75 C18.3751123 1.93119385 19.25022461 2.1123877 20.15185547 2.29907227 C28.16018538 3.98246779 36.09156017 5.9010594 44 8 C44.69770508 8.18143555 45.39541016 8.36287109 46.11425781 8.54980469 C61.23671863 12.4950897 76.363508 17.06210022 90.4921875 23.81640625 C93.33525975 25.15823007 96.21862042 26.36425579 99.125 27.5625 C117.07811741 35.00087601 134.2749212 43.82535364 150.87524414 53.92944336 C153.86396974 55.74489088 156.83478495 57.50862048 160 59 C160 59.66 160 60.32 160 61 C160.58426758 61.28681641 161.16853516 61.57363281 161.77050781 61.86914062 C165.18384443 63.60047825 168.45712309 65.55166262 171.75 67.5 C172.79607422 68.10521484 172.79607422 68.10521484 173.86328125 68.72265625 C175.61030769 69.75856429 177.3100555 70.87337033 179 72 C179 72.66 179 73.32 179 74 C179.5775 74.28875 180.155 74.5775 180.75 74.875 C181.4925 75.24625 182.235 75.6175 183 76 C183.66 76.28875 184.32 76.5775 185 76.875 C187 78 187 78 188.78515625 79.7890625 C191.21172394 82.21135053 193.77354682 84.34223487 196.4375 86.5 C197.36433594 87.2528125 198.29117187 88.005625 199.24609375 88.78125 C201.0910137 90.26765359 202.95884267 91.72603725 204.84765625 93.15625 C205.55792969 93.7646875 206.26820313 94.373125 207 95 C207 95.66 207 96.32 207 97 C207.59296875 97.27150879 208.1859375 97.54301758 208.796875 97.82275391 C210.96112836 98.97922883 212.47003054 100.1612757 214.25 101.8359375 C214.85263672 102.39974121 215.45527344 102.96354492 216.07617188 103.54443359 C216.71103516 104.14852051 217.34589844 104.75260742 218 105.375 C218.66064453 105.99842285 219.32128906 106.6218457 220.00195312 107.26416016 C228.69065718 115.49919511 237.32956412 123.79202179 245 133 C246.19882813 134.41732422 246.19882813 134.41732422 247.421875 135.86328125 C254 143.73864519 254 143.73864519 254 146 C254.99 146.33 255.98 146.66 257 147 C258.33105469 148.42358398 258.33105469 148.42358398 259.671875 150.24609375 C260.41594604 151.24733276 260.41594604 151.24733276 261.17504883 152.26879883 C261.69478271 152.98447021 262.2145166 153.7001416 262.75 154.4375 C263.28713623 155.16670654 263.82427246 155.89591309 264.37768555 156.6472168 C265.92763262 158.75831532 267.4662324 160.8771274 269 163 C269.69222656 163.95648437 270.38445312 164.91296875 271.09765625 165.8984375 C274.63666915 170.88046477 277.94316844 175.99007352 281.1875 181.16796875 C283.03737743 184.05840223 284.98326782 186.86684066 286.9375 189.6875 C290.8498013 195.52203027 293.92814323 201.59684713 296.984375 207.90234375 C298.95560116 211.95955924 301.09071012 215.91563015 303.25 219.875 C305.83509074 224.65121021 308.11279137 229.4243036 310.01953125 234.51171875 C311.15392899 237.39064848 312.47521205 240.14709601 313.8125 242.9375 C317.76684175 251.41536906 320.89664046 260.18139522 324 269 C324.3700415 270.05018311 324.3700415 270.05018311 324.74755859 271.12158203 C327.30464802 278.43695755 329.53784989 285.76228965 331.31640625 293.30859375 C331.93825044 295.75688317 332.69766092 298.06672222 333.5625 300.4375 C335.21591099 305.15661053 335.83852419 309.94048871 336.47265625 314.88671875 C336.91077669 317.9901669 336.91077669 317.9901669 337.96875 320.8046875 C339.31363527 324.97179414 339.86233614 329.10597411 340.4375 333.4375 C340.56237793 334.35635986 340.68725586 335.27521973 340.81591797 336.22192383 C341.07949727 338.16783665 341.34084425 340.11405299 341.60009766 342.06054688 C341.98684236 344.90328571 342.40177429 347.74049804 342.82421875 350.578125 C344.92261425 365.04062075 345.71454504 379.3955069 346 394 C346.02489502 395.07290283 346.02489502 395.07290283 346.05029297 396.16748047 C346.14132128 400.44805873 346.10408455 404.72045225 346 409 C345.96519531 410.455271 345.96519531 410.455271 345.9296875 411.93994141 C345.22300898 439.06274475 342.5488083 465.6053107 336 492 C335.55726071 493.97529839 335.11454915 495.95060304 334.67236328 497.92602539 C328.69655599 524.25749046 319.48826857 549.78298358 307.87011719 574.12915039 C306.91060544 576.19220833 306.00705136 578.27597958 305.1015625 580.36328125 C302.98034906 585.15553964 300.54341254 589.73288325 298 594.3125 C297.28541626 595.60184448 297.28541626 595.60184448 296.55639648 596.91723633 C285.65953842 616.44632425 273.74114914 634.8454566 259.9609375 652.4609375 C258.57351138 654.25740558 257.25908988 656.11136518 256 658 C255.34 658 254.68 658 254 658 C253.80792969 658.67417969 253.61585938 659.34835937 253.41796875 660.04296875 C251.43211304 664.18427116 248.49087587 667.03932686 245.3125 670.3125 C244.02508681 671.66185004 242.7386154 673.0120993 241.453125 674.36328125 C240.5854248 675.26494019 240.5854248 675.26494019 239.70019531 676.18481445 C237.92815397 678.07670524 236.23956565 680.02374194 234.5625 682 C231.06592323 686.05996382 227.27923925 689.83065295 223.5 693.625 C222.87037354 694.25921875 222.24074707 694.8934375 221.59204102 695.546875 C210.10147771 707 210.10147771 707 207 707 C206.78085938 707.5775 206.56171875 708.155 206.3359375 708.75 C204.57875876 711.70945893 202.45414268 713.05828277 199.625 715 C196.06260317 717.45814983 193.04959826 719.94436293 190 723 C187.42437294 724.87534136 184.79045765 726.63978096 182.14453125 728.4140625 C179.8991629 729.82398333 179.8991629 729.82398333 179 732 C180.28777344 732.42152344 180.28777344 732.42152344 181.6015625 732.8515625 C189.99368259 735.68752032 198.16694481 738.85308843 206 743 C206 743.66 206 744.32 206 745 C207.0209375 745.1546875 207.0209375 745.1546875 208.0625 745.3125 C211.62915989 746.14725019 214.66222194 747.49472754 218 749 C218 749.66 218 750.32 218 751 C218.58007812 751.12632812 219.16015625 751.25265625 219.7578125 751.3828125 C221.99167467 751.99770836 223.82160505 752.81119298 225.875 753.875 C226.56335937 754.22820313 227.25171875 754.58140625 227.9609375 754.9453125 C228.97027344 755.46738281 228.97027344 755.46738281 230 756 C231.155 756.5775 232.31 757.155 233.5 757.75 C234.325 758.1625 235.15 758.575 236 759 C236 759.66 236 760.32 236 761 C236.73476562 761.2784375 237.46953125 761.556875 238.2265625 761.84375 C250.90271703 767.12845668 263.26424276 776.50403315 273.80859375 785.20703125 C275.82780763 786.85911533 277.88902523 788.40567934 280 789.9375 C283.98367361 792.89132612 287.59513782 796.19538399 291.24658203 799.54614258 C293.77975758 801.80371905 296.37381076 803.91623023 299.03515625 806.01953125 C305.05306547 810.92187137 310.55292337 816.24889793 316.01660156 821.75585938 C317.62347307 823.37346287 319.24078494 824.98006913 320.859375 826.5859375 C326.60596102 832.32556407 331.98146995 838.1704631 337.02075195 844.54931641 C339.10608643 847.13135508 341.30587218 849.56705331 343.5625 852 C348.14956865 857.04736273 352.07667987 862.42976378 356 868 C356.80047365 869.10663488 357.60262407 870.21205839 358.40625 871.31640625 C363.81663356 878.77211459 368.93746597 886.36531169 373.83935547 894.1640625 C375.04814012 896.07614929 376.27486784 897.97587793 377.50390625 899.875 C382.96850527 908.38082161 387.73196571 917.04211138 392.10498047 926.15429688 C393.4645616 928.95801574 394.89400142 931.72573743 396.3125 934.5 C398.17704937 938.22408651 399.81303666 941.90797796 401.18041992 945.83886719 C402.11089557 948.2924181 403.20164092 950.63620954 404.31640625 953.01171875 C406.97471165 958.82552844 409.23158515 964.72982922 411.375 970.75 C411.76147705 971.83345703 412.1479541 972.91691406 412.54614258 974.03320312 C420.71276465 997.18459186 427.21471252 1020.79420897 431.45703125 1044.98828125 C431.75417797 1046.63648354 432.07487159 1048.28337753 432.50268555 1049.90258789 C433.45236192 1053.90782587 433.63869307 1058.03206992 434 1062.125 C434.0825 1063.00542969 434.165 1063.88585938 434.25 1064.79296875 C435.6284379 1080.10655235 436.16582222 1095.36857005 436.13037109 1110.74072266 C436.12500433 1113.49777724 436.13036047 1116.254669 436.13671875 1119.01171875 C436.14485475 1135.23272522 435.5523059 1151.19014688 433.125 1167.25 C432.85828491 1169.06419434 432.85828491 1169.06419434 432.58618164 1170.91503906 C431.52702371 1177.96593669 430.33213025 1184.92748893 428.70703125 1191.87109375 C428.0384733 1194.82973971 427.49539937 1197.79451196 426.97900391 1200.78295898 C425.47414186 1209.41048878 423.21368063 1217.68325143 420.60986328 1226.03955078 C420.05149203 1227.83447519 419.50743293 1229.63383569 418.96484375 1231.43359375 C413.71916052 1248.78469983 407.73166305 1265.59713004 400 1282 C399.6385791 1282.77182617 399.2771582 1283.54365234 398.90478516 1284.33886719 C387.37511759 1308.93732361 387.37511759 1308.93732361 380 1320 C379.11612325 1321.64108326 378.24233948 1323.2876168 377.375 1324.9375 C369.31712591 1339.89340267 358.79348336 1353.5076568 348.40234375 1366.89453125 C346.88121705 1368.86086576 345.37183793 1370.83639259 343.87890625 1372.82421875 C343.25886719 1373.64535156 342.63882812 1374.46648437 342 1375.3125 C341.195625 1376.38951172 341.195625 1376.38951172 340.375 1377.48828125 C339.92125 1377.98714844 339.4675 1378.48601562 339 1379 C338.34 1379 337.68 1379 337 1379 C336.72655762 1379.59071289 336.45311523 1380.18142578 336.17138672 1380.79003906 C331.5798326 1389.45255425 322.67406785 1396.47941934 315.78369141 1403.34667969 C313.86894946 1405.25603351 311.95964679 1407.17071071 310.05078125 1409.0859375 C308.8232374 1410.31282099 307.59538361 1411.53939447 306.3671875 1412.765625 C305.80248749 1413.33234924 305.23778748 1413.89907349 304.65597534 1414.48297119 C296.0887142 1423 296.0887142 1423 293 1423 C292.7628125 1423.58265625 292.525625 1424.1653125 292.28125 1424.765625 C290.7273194 1427.47552837 288.98070569 1428.86530802 286.5 1430.75 C285.7059375 1431.36359375 284.911875 1431.9771875 284.09375 1432.609375 C282 1434 282 1434 280 1434 C280 1434.66 280 1435.32 280 1436 C278.09375 1437.515625 278.09375 1437.515625 275.5 1439.25 C272.28912004 1441.42961557 269.13224764 1443.62589164 266.0625 1446 C260.16759115 1450.45655109 253.8435628 1454.26142929 247.546875 1458.1171875 C246.67712036 1458.65013428 246.67712036 1458.65013428 245.78979492 1459.19384766 C244.14427987 1460.1999958 242.49603698 1461.20167863 240.84765625 1462.203125 C238.46287424 1463.70792572 236.24941316 1465.30684085 234 1467 C232 1468 230 1469 228 1470 C227.10539062 1470.61488281 226.21078125 1471.22976563 225.2890625 1471.86328125 C221.72035253 1474.18167122 218.11036399 1475.98287857 214.25 1477.75 C213.57839844 1478.06582031 212.90679688 1478.38164063 212.21484375 1478.70703125 C207.2616342 1481 207.2616342 1481 205 1481 C205 1481.66 205 1482.32 205 1483 C200.93454442 1485.18909146 196.94408636 1486.74698552 192.5390625 1488.05859375 C190.33627345 1488.87532015 188.3882303 1489.80393453 186.30859375 1490.8828125 C181.81936353 1493.16874275 177.20234425 1494.82267521 172.4375 1496.4375 C171.11443848 1496.89189453 171.11443848 1496.89189453 169.76464844 1497.35546875 C167.99033096 1497.96343815 166.21511899 1498.56880413 164.43896484 1499.17138672 C162.35864845 1499.87815287 160.28215795 1500.59459851 158.20703125 1501.31640625 C154.48540751 1502.59058929 150.75027869 1503.81351427 147 1505 C145.75718262 1505.39421143 145.75718262 1505.39421143 144.48925781 1505.79638672 C119.79621404 1513.53448213 94.75264889 1518.54873086 69 1521 C67.98470215 1521.10296387 66.9694043 1521.20592773 65.92333984 1521.31201172 C52.44443821 1522.65629165 39.03687474 1523.18240726 25.5 1523.1875 C24.79721924 1523.18849701 24.09443848 1523.18949402 23.37036133 1523.19052124 C21.34055387 1523.19019354 19.31101186 1523.18109983 17.28125 1523.16796875 C16.11658203 1523.16047607 14.95191406 1523.1529834 13.75195312 1523.14526367 C9.15554364 1522.96730534 4.57702499 1522.4577025 0 1522 C0 1019.74 0 517.48 0 0 Z " fill="#1D2846" transform="translate(1417,479)"/>
<path d="M0 0 C222.42 0 444.84 0 674 0 C673.34 0.99 672.68 1.98 672 3 C671.34 3 670.68 3 670 3 C669.67 3.99 669.34 4.98 669 6 C666.78515625 8.04296875 666.78515625 8.04296875 664.0625 10.1875 C662.71865234 11.26064453 662.71865234 11.26064453 661.34765625 12.35546875 C659 14 659 14 657 14 C656.67 14.99 656.34 15.98 656 17 C654.00390625 18.82421875 654.00390625 18.82421875 651.5625 20.6875 C650.75941406 21.31011719 649.95632813 21.93273437 649.12890625 22.57421875 C647 24 647 24 645 24 C645 24.66 645 25.32 645 26 C644.34 26 643.68 26 643 26 C643 26.66 643 27.32 643 28 C641.34765625 29.4453125 641.34765625 29.4453125 639.0625 31.125 C634.86019581 34.29329874 630.93263167 37.66062689 627.04296875 41.203125 C621.58913043 46 621.58913043 46 619 46 C618.63068359 46.88945313 618.63068359 46.88945313 618.25390625 47.796875 C616.79270344 50.364222 615.31972363 51.51900152 612.9375 53.25 C608.04713193 56.91777605 603.53330105 60.9046207 599 65 C583.37419355 79 583.37419355 79 580 79 C579.66935547 79.86818359 579.66935547 79.86818359 579.33203125 80.75390625 C577.5886912 83.69355589 575.50131643 85.01466198 572.6875 86.9375 C568.73102994 89.7254789 565.34160584 92.48702975 562 96 C556.61880217 101.03710703 551.09954631 105.77700733 545.234375 110.23828125 C542.04341766 112.75422838 539.04627843 115.46787029 536.04296875 118.203125 C530.58913043 123 530.58913043 123 528 123 C527.64421875 123.87398437 527.64421875 123.87398437 527.28125 124.765625 C525.7273194 127.47552837 523.98070569 128.86530802 521.5 130.75 C520.7059375 131.36359375 519.911875 131.9771875 519.09375 132.609375 C517 134 517 134 515 134 C514.67 134.99 514.34 135.98 514 137 C511.8828125 138.9453125 511.8828125 138.9453125 509.125 141.125 C508.13113281 141.9190625 507.13726563 142.713125 506.11328125 143.53125 C505.08589844 144.3459375 504.05851562 145.160625 503 146 C496.55719439 151.21684665 490.2173999 156.51726004 484 162 C478.3164557 167 478.3164557 167 476 167 C475.67 167.99 475.34 168.98 475 170 C473.20703125 171.62109375 473.20703125 171.62109375 470.8125 173.4375 C466.4538501 176.82479364 462.23609124 180.327923 458.0625 183.9375 C453.64884499 187.73739522 449.22664055 191.5243555 444.75 195.25 C443.87859375 195.97703125 443.0071875 196.7040625 442.109375 197.453125 C440 199 440 199 438 199 C437.67 199.99 437.34 200.98 437 202 C436.34 202 435.68 202 435 202 C435 202.66 435 203.32 435 204 C433.1015625 205.7265625 433.1015625 205.7265625 430.625 207.625 C429.81289062 208.25664063 429.00078125 208.88828125 428.1640625 209.5390625 C426 211 426 211 424 211 C423.67 211.99 423.34 212.98 423 214 C421.13671875 215.69140625 421.13671875 215.69140625 418.6875 217.5625 C415.65957748 219.90881225 412.65765687 222.26639877 409.73828125 224.74609375 C409.19921143 225.20363037 408.6601416 225.66116699 408.10473633 226.13256836 C406.5576365 227.45088666 405.0131417 228.7722602 403.46875 230.09375 C401 232 401 232 399 232 C399 232.66 399 233.32 399 234 C397.48772933 235.3302109 395.91330976 236.59027591 394.3125 237.8125 C391.52796435 239.98084989 388.93518633 242.06481367 386.4375 244.5625 C382.93285972 248.06714028 379.09733143 251.20673083 375 254 C374.34 254 373.68 254 373 254 C372.67 254.99 372.34 255.98 372 257 C369.86753932 258.81317742 367.73529921 260.51102559 365.5 262.1875 C360.34065731 266.13074953 355.41314453 270.18955053 350.671875 274.63671875 C349 276 349 276 347 276 C346.7628125 276.58265625 346.525625 277.1653125 346.28125 277.765625 C344.7273194 280.47552837 342.98070569 281.86530802 340.5 283.75 C339.7059375 284.36359375 338.911875 284.9771875 338.09375 285.609375 C336 287 336 287 334 287 C333.67 287.99 333.34 288.98 333 290 C330.86753932 291.81317742 328.73529921 293.51102559 326.5 295.1875 C321.34065731 299.13074953 316.41314453 303.18955053 311.671875 307.63671875 C310 309 310 309 308 309 C307.75894531 309.58523438 307.51789063 310.17046875 307.26953125 310.7734375 C305.75641436 313.42721174 304.11031271 314.77633282 301.6875 316.625 C300.92824219 317.21539063 300.16898438 317.80578125 299.38671875 318.4140625 C296.99112336 320.00589839 294.70146019 321.03416822 292 322 C291.35675781 321.46632813 290.71351563 320.93265625 290.05078125 320.3828125 C285.87190694 316.93717862 281.69972994 313.50696785 277.375 310.24609375 C276.78162842 309.7979834 276.18825684 309.34987305 275.5769043 308.88818359 C274.41062004 308.01189696 273.24025425 307.14101362 272.06567383 306.27587891 C270.6745922 305.22998145 269.33196888 304.12020912 268 303 C268 302.34 268 301.68 268 301 C267.44828125 300.7421875 266.8965625 300.484375 266.328125 300.21875 C263.65685825 298.82036875 261.23148091 297.21236695 258.75 295.5 C257.85796875 294.8915625 256.9659375 294.283125 256.046875 293.65625 C255.37140625 293.1096875 254.6959375 292.563125 254 292 C254 291.34 254 290.68 254 290 C253.34 289.814375 252.68 289.62875 252 289.4375 C249.19491984 288.09339909 247.60335515 286.87285124 245.3359375 284.80859375 C241.25877959 281.17891743 236.99628815 277.88934179 232.625 274.625 C226.86586003 270.27955234 221.41158068 265.81627841 216.1171875 260.9140625 C212.07112816 257.25618598 207.62951416 254.1658867 203.19921875 250.99609375 C202.22597656 250.29613281 201.25273438 249.59617187 200.25 248.875 C199.34765625 248.23304688 198.4453125 247.59109375 197.515625 246.9296875 C195.12950086 245.09933761 193.11346586 243.13107808 191 241 C189.9275 240.29875 188.855 239.5975 187.75 238.875 C186.38875 237.946875 186.38875 237.946875 185 237 C185 236.34 185 235.68 185 235 C184.42636719 234.73832031 183.85273437 234.47664062 183.26171875 234.20703125 C180.83873645 232.91393707 178.92938534 231.43720877 176.8125 229.6875 C172.84553389 226.45515724 168.81577301 223.33106249 164.73168945 220.24804688 C158.34210587 215.42213231 152.20904857 210.52035884 146.33984375 205.0625 C142.92589599 202.05321049 139.26035641 199.44341213 135.54296875 196.82421875 C132.94412431 194.95991713 130.41296636 193.10105688 128 191 C128 190.34 128 189.68 128 189 C127.44441406 188.74347656 126.88882813 188.48695313 126.31640625 188.22265625 C118.43334252 184.06178113 111.49951065 177.86403136 104.6640625 172.203125 C102.23296446 170.19265683 99.78067687 168.21463577 97.3125 166.25 C94.28503527 163.83763921 91.27144637 161.40973891 88.2734375 158.9609375 C81.99146598 153.8308256 75.705693 148.72322405 69.25 143.8125 C64.99815651 140.57099556 60.84095801 137.25220977 56.75 133.8125 C51.18681203 129.13503011 45.55295634 124.57693484 39.66796875 120.30859375 C38.56388672 119.50615234 38.56388672 119.50615234 37.4375 118.6875 C36.44556641 117.98173828 36.44556641 117.98173828 35.43359375 117.26171875 C34.96050781 116.84535156 34.48742187 116.42898438 34 116 C34 115.34 34 114.68 34 114 C33.34 113.814375 32.68 113.62875 32 113.4375 C28.59903855 111.80787264 26.41709713 109.79030313 23.6484375 107.265625 C19.51557984 103.73014205 15.11679453 100.55481644 10.72338867 97.35205078 C10.05799072 96.8620459 9.39259277 96.37204102 8.70703125 95.8671875 C8.1138208 95.43519043 7.52061035 95.00319336 6.90942383 94.55810547 C4.44917562 92.5505228 2.2453518 90.2453518 0 88 C0 58.96 0 29.92 0 0 Z " fill="#1D2846" transform="translate(627,479)"/>
</svg>
