<?xml version="1.0" encoding="UTF-8"?>
<svg version="1.1" xmlns="http://www.w3.org/2000/svg" width="2480" height="2480">
<path d="M0 0 C3.32236596 0.00543448 6.64472481 0.00780565 9.96709442 0.00987244 C40.57768154 0.03955643 71.0475427 0.331438 101.55431366 3.09324646 C104.13516573 3.32214687 106.71691361 3.53355311 109.29967499 3.73973083 C203.05029402 11.24550362 296.48417095 29.86647311 410.08678436 67.31785583 C410.76978607 67.55310974 411.45278778 67.78836365 412.15648651 68.03074646 C476.23556937 90.10773916 538.68276364 117.67029879 598.08678436 150.31785583 C599.21519745 150.93370544 600.34361053 151.54955505 601.50621796 152.18406677 C623.63518085 164.26584529 645.27910987 177.088426 666.5154953 190.67674255 C669.41158487 192.52515825 672.31549395 194.36096378 675.21959686 196.19676208 C686.67593309 203.45738089 697.95265871 210.86894313 708.95738983 218.79637146 C712.08991476 221.03460757 715.25420826 223.22641729 718.41613007 225.4228363 C739.76694347 240.26827576 760.41569015 255.96544444 780.54381561 272.42723083 C783.43434491 274.79102787 786.34747876 277.12403401 789.27428436 279.44285583 C794.73051725 283.79691146 800.04765949 288.31233925 805.35729218 292.84275818 C807.11667314 294.34334821 808.87901735 295.84040891 810.64147186 297.33738708 C817.07959286 302.81796728 823.41774842 308.37993915 829.64928436 314.09519958 C831.72951161 315.99207347 833.83235334 317.85178526 835.96178436 319.69285583 C841.13987969 324.2001048 846.15799831 328.88049501 851.18639374 333.55290222 C852.41310151 334.692185 853.64058494 335.83063344 854.86901093 336.96806335 C864.93003429 346.28934609 874.75164519 355.82438505 884.43566132 365.53636169 C886.67563622 367.78177163 888.92101133 370.02168423 891.16686249 372.26121521 C892.62095978 373.7159723 894.07474739 375.17103902 895.52819061 376.62644958 C896.18557724 377.28181198 896.84296387 377.93717438 897.5202713 378.61239624 C901.33476744 382.44602247 904.96439511 386.38600095 908.4794693 390.49645996 C910.11428973 392.34902468 911.82287603 394.08847121 913.58678436 395.81785583 C916.57912812 398.76385798 919.34002609 401.84768591 922.07897186 405.02879333 C924.03033621 407.25350055 926.02846892 409.42938849 928.04113007 411.59861755 C932.84915913 416.78259665 937.40528537 422.09235709 941.84069061 427.60301208 C944.17509026 430.42459079 946.60669035 433.12376295 949.08678436 435.81785583 C953.98052668 441.14759977 958.54785752 446.68555834 963.08678436 452.31785583 C964.08447241 453.53613147 965.08323347 454.7535289 966.08287811 455.97019958 C973.40426961 464.89714961 980.48947242 473.97969656 987.46178436 483.18113708 C989.07810733 485.30644637 990.70538858 487.42285024 992.33678436 489.53660583 C1000.13363506 499.64732282 1007.69193522 509.90964895 1015.08678436 520.31785583 C1015.65010468 521.11062927 1016.21342499 521.90340271 1016.79381561 522.72019958 C1037.14695202 551.43512116 1056.23790136 580.98366276 1074.08678436 611.31785583 C1074.70408417 612.36554138 1075.32138397 613.41322693 1075.95738983 614.49266052 C1085.4360363 630.62684188 1094.44360233 646.99250753 1103.15575409 663.55082703 C1104.07768614 665.30058805 1105.00360294 667.04824765 1105.9295578 668.79588318 C1142.61227215 738.11470729 1171.95403882 811.73067177 1242.28990936 1157.40379333 C1242.38955742 1158.74247467 1242.38955742 1158.74247467 1242.49121857 1160.10820007 C1243.73084164 1177.56363582 1244.25326289 1194.98963373 1244.28990936 1212.48582458 C1244.29688725 1214.56239848 1244.30392822 1216.63897217 1244.31102753 1218.71554565 C1244.33030126 1225.31215175 1244.33520271 1231.90872464 1244.33678436 1238.50535583 C1244.3373735 1239.62728081 1244.33796265 1240.74920578 1244.33856964 1241.90512848 C1244.35045701 1273.95067277 1244.20285024 1305.84652963 1241.31139374 1337.78538513 C1241.08249333 1340.3662372 1240.87108709 1342.94798508 1240.66490936 1345.53074646 C1237.06889395 1390.44666392 1230.63801471 1435.08724405 1222.08678436 1479.31785583 C1221.93249969 1480.1197937 1221.77821503 1480.92173157 1221.61925507 1481.74797058 C1210.97948402 1536.87809511 1196.12151064 1591.17829478 1177.80492401 1644.23698425 C1177.10153681 1646.27510936 1176.40109218 1648.31422698 1175.70104218 1650.35350037 C1161.49214193 1691.65650924 1144.74926769 1732.04556645 1125.96440887 1771.47471619 C1125.04378327 1773.40816442 1124.1260095 1775.3429514 1123.20836639 1777.27781677 C1114.03318098 1796.59745003 1104.38227368 1815.56854471 1094.08678436 1834.31785583 C1093.46948456 1835.44916931 1092.85218475 1836.58048279 1092.21617889 1837.74607849 C1080.13576955 1859.87200397 1067.31441985 1881.51298562 1053.72789764 1902.74656677 C1051.87948195 1905.64265634 1050.04367642 1908.54656542 1048.20787811 1911.45066833 C1040.94725931 1922.90700456 1033.53569707 1934.18373018 1025.60826874 1945.1884613 C1023.37003262 1948.32098624 1021.17822291 1951.48527973 1018.98180389 1954.64720154 C1004.13636444 1975.99801494 988.43919576 1996.64676163 971.97740936 2016.77488708 C969.61361233 2019.66541638 967.28060619 2022.57855023 964.96178436 2025.50535583 C960.60772873 2030.96158873 956.09230095 2036.27873096 951.56188202 2041.58836365 C950.06129199 2043.34774461 948.56423129 2045.11008883 947.06725311 2046.87254333 C941.58667292 2053.31066433 936.02470105 2059.64881989 930.30944061 2065.88035583 C928.41256672 2067.96058309 926.55285493 2070.06342481 924.71178436 2072.19285583 C920.2045354 2077.37095116 915.52414519 2082.38906978 910.85173798 2087.41746521 C909.7124552 2088.64417298 908.57400676 2089.87165641 907.43657684 2091.1000824 C898.11529411 2101.16110576 888.58025514 2110.98271666 878.8682785 2120.66673279 C876.62286856 2122.9067077 874.38295597 2125.1520828 872.14342499 2127.39793396 C870.6886679 2128.85203125 869.23360118 2130.30581886 867.77819061 2131.75926208 C867.12282822 2132.41664871 866.46746582 2133.07403534 865.79224396 2133.75134277 C861.95861773 2137.56583891 858.01863924 2141.19546658 853.90818024 2144.71054077 C852.05561551 2146.3453612 850.31616899 2148.0539475 848.58678436 2149.81785583 C845.64078222 2152.81019959 842.55695429 2155.57109756 839.37584686 2158.31004333 C837.15113965 2160.26140768 834.97525171 2162.2595404 832.80602264 2164.27220154 C827.62204355 2169.0802306 822.31228311 2173.63635684 816.80162811 2178.07176208 C813.98004941 2180.40616173 811.28087725 2182.83776182 808.58678436 2185.31785583 C803.25704043 2190.21159815 797.71908186 2194.77892899 792.08678436 2199.31785583 C790.86850873 2200.31554388 789.65111129 2201.31430494 788.43444061 2202.31394958 C779.50749058 2209.63534108 770.42494364 2216.72054389 761.22350311 2223.69285583 C759.09819382 2225.3091788 756.98178995 2226.93646005 754.86803436 2228.56785583 C744.75731738 2236.36470653 734.49499124 2243.92300669 724.08678436 2251.31785583 C723.29401093 2251.88117615 722.50123749 2252.44449646 721.68444061 2253.02488708 C692.97018844 2273.37754902 663.42369631 2292.47481391 633.08678436 2310.31785583 C632.02846405 2310.94047302 630.97014374 2311.56309021 629.87975311 2312.20457458 C613.81729938 2321.6245142 597.56441695 2330.64550556 581.08678436 2339.31785583 C580.15029053 2339.8115567 580.15029053 2339.8115567 579.19487762 2340.31523132 C511.03536874 2376.22585313 439.4210872 2405.37701303 87.00084686 2478.52098083 C85.66216553 2478.62062889 85.66216553 2478.62062889 84.29644012 2478.72229004 C66.84100437 2479.96191312 49.41500647 2480.48433436 31.91881561 2480.52098083 C29.84224172 2480.52795872 27.76566803 2480.53499969 25.68909454 2480.542099 C19.09248845 2480.56137273 12.49591555 2480.56627418 5.89928436 2480.56785583 C4.77735939 2480.56844498 3.65543442 2480.56903412 2.49951172 2480.56964111 C-29.54603258 2480.58152848 -61.44188944 2480.43392171 -93.38074493 2477.54246521 C-95.96159701 2477.3135648 -98.54334489 2477.10215856 -101.12610626 2476.89598083 C-146.04202372 2473.29996542 -190.68260386 2466.86908618 -234.91321564 2458.31785583 C-235.7151535 2458.16357117 -236.51709137 2458.0092865 -237.34333038 2457.85032654 C-293.21271116 2447.06788364 -348.15398017 2431.89372298 -401.91321564 2413.31785583 C-402.59621735 2413.08260193 -403.27921906 2412.84734802 -403.98291779 2412.60496521 C-468.06200065 2390.52797251 -530.50919491 2362.96541288 -589.91321564 2330.31785583 C-591.04162872 2329.70200623 -592.17004181 2329.08615662 -593.33264923 2328.4516449 C-615.46161213 2316.36986638 -637.10554114 2303.54728567 -658.34192657 2289.95896912 C-661.23801615 2288.11055342 -664.14192522 2286.27474789 -667.04602814 2284.43894958 C-678.50236436 2277.17833078 -689.77908999 2269.76676854 -700.78382111 2261.83934021 C-703.91634604 2259.6011041 -707.08063953 2257.40929438 -710.24256134 2255.21287537 C-731.59337474 2240.36743591 -752.24212143 2224.67026723 -772.37024689 2208.20848083 C-775.26077618 2205.8446838 -778.17391004 2203.51167766 -781.10071564 2201.19285583 C-786.55694853 2196.83880021 -791.87409076 2192.32337242 -797.18372345 2187.79295349 C-798.94310441 2186.29236346 -800.70544863 2184.79530276 -802.46790314 2183.29832458 C-808.90602414 2177.81774439 -815.24417969 2172.25577252 -821.47571564 2166.54051208 C-823.55594289 2164.6436382 -825.65878461 2162.78392641 -827.78821564 2160.94285583 C-832.96631096 2156.43560687 -837.98442959 2151.75521666 -843.01282501 2147.08280945 C-844.23953278 2145.94352667 -845.46701621 2144.80507823 -846.6954422 2143.66764832 C-856.75646557 2134.34636558 -866.57807646 2124.81132662 -876.26209259 2115.09934998 C-878.5020675 2112.85394004 -880.7474426 2110.61402744 -882.99329376 2108.37449646 C-884.44739106 2106.91973937 -885.90117866 2105.46467265 -887.35462189 2104.00926208 C-888.01200851 2103.35389969 -888.66939514 2102.69853729 -889.34670258 2102.02331543 C-893.16119872 2098.1896892 -896.79082638 2094.24971072 -900.30590057 2090.13925171 C-901.940721 2088.28668699 -903.6493073 2086.54724046 -905.41321564 2084.81785583 C-908.40555939 2081.87185369 -911.16645736 2078.78802576 -913.90540314 2075.60691833 C-915.85676749 2073.38221112 -917.8549002 2071.20632318 -919.86756134 2069.03709412 C-924.67559041 2063.85311502 -929.23171665 2058.54335458 -933.66712189 2053.03269958 C-936.00152153 2050.21112088 -938.43312162 2047.51194872 -940.91321564 2044.81785583 C-945.80695795 2039.4881119 -950.37428879 2033.95015333 -954.91321564 2028.31785583 C-955.91090369 2027.0995802 -956.90966474 2025.88218277 -957.90930939 2024.66551208 C-965.23070088 2015.73856206 -972.31590369 2006.65601511 -979.28821564 1997.45457458 C-980.90453861 1995.3292653 -982.53181986 1993.21286143 -984.16321564 1991.09910583 C-991.96006634 1980.98838885 -999.51836649 1970.72606271 -1006.91321564 1960.31785583 C-1007.75819611 1959.12869568 -1007.75819611 1959.12869568 -1008.62024689 1957.91551208 C-1028.9733833 1929.20059051 -1048.06433264 1899.65204891 -1065.91321564 1869.31785583 C-1066.53051544 1868.27017029 -1067.14781525 1867.22248474 -1067.78382111 1866.14305115 C-1077.26246757 1850.00886979 -1086.27003361 1833.64320414 -1094.98218536 1817.08488464 C-1095.90411741 1815.33512362 -1096.83003421 1813.58746402 -1097.75598907 1811.83982849 C-1134.43870343 1742.52100438 -1163.78047009 1668.9050399 -1234.11634064 1323.23191833 C-1234.18277267 1322.33946411 -1234.24920471 1321.44700989 -1234.31764984 1320.5275116 C-1235.55727292 1303.07207585 -1236.07969416 1285.64607794 -1236.11634064 1268.14988708 C-1236.12331852 1266.07331319 -1236.13035949 1263.9967395 -1236.1374588 1261.92016602 C-1236.15673254 1255.32355992 -1236.16163398 1248.72698703 -1236.16321564 1242.13035583 C-1236.16380478 1241.00843086 -1236.16439392 1239.88650589 -1236.16500092 1238.73058319 C-1236.17688828 1206.6850389 -1236.02928151 1174.78918204 -1233.13782501 1142.85032654 C-1232.90892461 1140.26947447 -1232.69751836 1137.68772659 -1232.49134064 1135.10496521 C-1228.89532523 1090.18904775 -1222.46444599 1045.54846762 -1213.91321564 1001.31785583 C-1213.75893097 1000.51591797 -1213.6046463 999.7139801 -1213.44568634 998.88774109 C-1202.66324344 943.01836031 -1187.48908279 888.0770913 -1168.91321564 834.31785583 C-1168.67796173 833.63485413 -1168.44270782 832.95185242 -1168.20032501 832.24815369 C-1146.12333231 768.16907082 -1118.56077268 705.72187656 -1085.91321564 646.31785583 C-1084.98944122 644.62523621 -1084.98944122 644.62523621 -1084.0470047 642.89842224 C-1071.96522618 620.76945935 -1059.14264547 599.12553033 -1045.55432892 577.8891449 C-1043.70591322 574.99305533 -1041.87010769 572.08914625 -1040.03430939 569.18504333 C-1032.77369058 557.72870711 -1025.36212835 546.45198149 -1017.43470001 535.44725037 C-1015.1964639 532.31472543 -1013.00465419 529.15043194 -1010.80823517 525.98851013 C-995.96279572 504.63769673 -980.26562703 483.98895004 -963.80384064 463.86082458 C-961.4400436 460.97029529 -959.10703747 458.05716144 -956.78821564 455.13035583 C-952.43416001 449.67412294 -947.91873222 444.35698071 -943.38831329 439.04734802 C-941.88772326 437.28796706 -940.39066256 435.52562284 -938.89368439 433.76316833 C-933.41310419 427.32504734 -927.85113233 420.98689178 -922.13587189 414.75535583 C-920.238998 412.67512858 -918.37928621 410.57228686 -916.53821564 408.44285583 C-912.03096667 403.26476051 -907.35057646 398.24664189 -902.67816925 393.21824646 C-901.53888647 391.99153869 -900.40043803 390.76405526 -899.26300812 389.53562927 C-889.94172538 379.47460591 -880.40668642 369.65299501 -870.69470978 359.96897888 C-868.44929984 357.72900397 -866.20938724 355.48362887 -863.96985626 353.23777771 C-862.51509917 351.78368042 -861.06003246 350.32989281 -859.60462189 348.87644958 C-858.94925949 348.21906296 -858.29389709 347.56167633 -857.61867523 346.8843689 C-853.78504901 343.06987276 -849.84507052 339.44024509 -845.73461151 335.9251709 C-843.88204679 334.29035047 -842.14260026 332.58176417 -840.41321564 330.81785583 C-837.46721349 327.82551208 -834.38338556 325.06461411 -831.20227814 322.32566833 C-828.97757092 320.37430399 -826.80168298 318.37617127 -824.63245392 316.36351013 C-819.44847482 311.55548107 -814.13871438 306.99935483 -808.62805939 302.56394958 C-805.80648069 300.22954994 -803.10730852 297.79794985 -800.41321564 295.31785583 C-795.08347171 290.42411352 -789.54551313 285.85678268 -783.91321564 281.31785583 C-782.69494001 280.32016779 -781.47754257 279.32140673 -780.26087189 278.32176208 C-771.33392186 271.00037059 -762.25137491 263.91516778 -753.04993439 256.94285583 C-750.9246251 255.32653287 -748.80822123 253.69925162 -746.69446564 252.06785583 C-736.58374865 244.27100514 -726.32142252 236.71270498 -715.91321564 229.31785583 C-715.1204422 228.75453552 -714.32766876 228.19121521 -713.51087189 227.61082458 C-684.79595031 207.25768817 -655.24740871 188.16673884 -624.91321564 170.31785583 C-623.86553009 169.70055603 -622.81784454 169.08325623 -621.73841095 168.44725037 C-605.6059703 158.96962655 -589.24402536 149.96317797 -572.68671417 141.25212097 C-570.92412653 140.32360361 -569.16353652 139.39129743 -567.40296173 138.45896912 C-498.71515962 102.13194312 -425.82522645 73.03464645 0 0 Z " fill="#FEFEFE" transform="translate(1235.913215637207,-0.3178558349609375)"/>
<path d="M0 0 C6.91970213 4.15182128 12.31566735 9.31566735 18 15 C20.39072343 17.09086998 22.79086425 19.16904079 25.20703125 21.23046875 C25.79871094 21.81441406 26.39039063 22.39835938 27 23 C27 23.66 27 24.32 27 25 C27.56203125 25.24363281 28.1240625 25.48726562 28.703125 25.73828125 C31.44019785 27.24180936 33.45795941 29.06699748 35.75 31.1875 C38.74271743 33.93191336 41.73687703 36.66132606 44.8125 39.3125 C49.03065776 42.9830673 53.1177707 46.79114687 57.2175293 50.5925293 C60.753198 53.86526955 64.33250974 57.07453374 67.9765625 60.2265625 C70.51501171 62.45138092 73.00641776 64.72503319 75.5 67 C78.64083556 69.86471815 81.79100756 72.71185902 85 75.5 C89.18146076 79.13307247 93.26374272 82.87197865 97.35546875 86.60546875 C99.48683945 88.53535094 101.63594329 90.43422944 103.8125 92.3125 C108.40983039 96.29557331 112.82790955 100.47359001 117.25317383 104.64575195 C117.83736084 105.19320068 118.42154785 105.74064941 119.0234375 106.3046875 C119.54856934 106.79952637 120.07370117 107.29436523 120.61474609 107.80419922 C122.00930819 109.10712552 122.00930819 109.10712552 124 110 C124 110.66 124 111.32 124 112 C124.66 112 125.32 112 126 112 C126 112.66 126 113.32 126 114 C126.55816406 114.24105469 127.11632812 114.48210937 127.69140625 114.73046875 C130.48892209 116.26886579 132.58486915 118.15561964 134.9375 120.3125 C135.77152344 121.07175781 136.60554687 121.83101562 137.46484375 122.61328125 C139.13351156 124.18424586 140.77417029 125.78559247 142.3828125 127.41796875 C145.44429186 130.43832376 148.65939373 133.21943192 151.9375 136 C152.53240234 136.50789062 153.12730469 137.01578125 153.74023438 137.5390625 C156.51652598 139.90573731 159.30609958 142.25153579 162.12890625 144.5625 C164.90916374 146.92288187 167.44000983 149.40456381 170 152 C172.18802769 154.08458618 174.40488286 156.13718634 176.625 158.1875 C177.19734375 158.72052734 177.7696875 159.25355469 178.359375 159.80273438 C180.82346718 162.08058703 183.20218996 164.13479331 186 166 C186 166.66 186 167.32 186 168 C186.54398438 168.22558594 187.08796875 168.45117188 187.6484375 168.68359375 C190.70737941 170.39599147 193.09558648 172.67043943 195.625 175.0625 C196.69763204 176.06020192 197.77055293 177.05759339 198.84375 178.0546875 C199.37613281 178.55194336 199.90851563 179.04919922 200.45703125 179.56152344 C206.65972203 185.34415858 212.96665548 190.88825581 219.67578125 196.078125 C222.29172267 198.24122278 224.61324447 200.58557194 227 203 C229.58604195 205.47767925 232.19905644 207.9262796 234.8125 210.375 C235.48603516 211.00921875 236.15957031 211.6434375 236.85351562 212.296875 C240.90282132 216.09431 245.01661757 219.80065375 249.20727539 223.44140625 C251.43082633 225.37456017 253.62458149 227.33915844 255.8125 229.3125 C256.65167969 230.06917969 257.49085938 230.82585937 258.35546875 231.60546875 C261.11728449 234.10619704 263.87144049 236.61518573 266.625 239.125 C270.40933528 242.56869187 274.21808835 245.97796947 278.08203125 249.33203125 C279.46049552 250.53081789 280.83209992 251.73750952 282.19921875 252.94921875 C282.91722656 253.58472656 283.63523437 254.22023438 284.375 254.875 C285.02210938 255.44992187 285.66921875 256.02484375 286.3359375 256.6171875 C287.96409558 258.07691822 287.96409558 258.07691822 290 259 C290.2371875 258.42765625 290.474375 257.8553125 290.71875 257.265625 C292.27593238 254.5120708 294.12492797 252.83204366 296.5 250.75 C297.2940625 250.04359375 298.088125 249.3371875 298.90625 248.609375 C301 247 301 247 303 247 C303.20882813 246.44183594 303.41765625 245.88367187 303.6328125 245.30859375 C305.47711726 242.19435342 308.0667119 240.26131551 310.875 238.0625 C314.75638856 235.00744112 317.93560012 231.88701542 321 228 C322.5024607 226.70313919 324.04650227 225.45315462 325.625 224.25 C330.29796666 220.61701108 334.65012896 216.73279059 338.96875 212.6875 C341 211 341 211 343 211 C343.26192139 210.4030835 343.52384277 209.80616699 343.79370117 209.19116211 C345.0698793 206.87306887 346.28495735 205.63303579 348.30078125 203.94140625 C348.94853516 203.39033203 349.59628906 202.83925781 350.26367188 202.27148438 C350.93978516 201.70751953 351.61589844 201.14355469 352.3125 200.5625 C356.72042282 196.84718969 360.9273257 193.08613769 365 189 C367.72516075 186.71337086 370.5004419 184.49964747 373.28125 182.28125 C376.02227023 179.98131348 378.48903529 177.54821938 381 175 C383.52139882 172.56166234 386.07111939 170.15423917 388.625 167.75 C389.29273438 167.11320312 389.96046875 166.47640625 390.6484375 165.8203125 C391.61523438 164.91152344 391.61523438 164.91152344 392.6015625 163.984375 C393.47288818 163.16018066 393.47288818 163.16018066 394.36181641 162.31933594 C396 161 396 161 399 160 C399 159.34 399 158.68 399 158 C400.71951974 156.46148234 402.50187497 154.99268241 404.3125 153.5625 C408.16467002 150.54764431 408.16467002 150.54764431 411.73046875 147.21484375 C413 146 413 146 415 146 C415.28875 145.38125 415.5775 144.7625 415.875 144.125 C417 142 417 142 419 140 C419.99 140 420.98 140 422 140 C422.23976563 139.42378906 422.47953125 138.84757813 422.7265625 138.25390625 C424.25848329 135.54250044 426.02073052 133.97558118 428.375 131.9375 C432.3598674 128.44281166 436.29403654 124.90788166 440.1875 121.3125 C452.51346852 110 452.51346852 110 455 110 C455.26047119 109.40598389 455.52094238 108.81196777 455.78930664 108.19995117 C457.08005108 105.85453917 458.35401955 104.5432316 460.37109375 102.80078125 C461.02787109 102.23166016 461.68464844 101.66253906 462.36132812 101.07617188 C463.04646484 100.49416016 463.73160156 99.91214844 464.4375 99.3125 C465.11876953 98.71888672 465.80003906 98.12527344 466.50195312 97.51367188 C471.60249418 93.13250194 471.60249418 93.13250194 475 92 C476.09166275 90.06669397 476.09166275 90.06669397 477 88 C477.66 87.34 478.32 86.68 479 86 C479.99 86 480.98 86 482 86 C482.35578125 85.14148438 482.35578125 85.14148438 482.71875 84.265625 C484.27593238 81.5120708 486.12492797 79.83204366 488.5 77.75 C489.2940625 77.04359375 490.088125 76.3371875 490.90625 75.609375 C493 74 493 74 495 74 C495.26570801 73.40074707 495.53141602 72.80149414 495.80517578 72.18408203 C497.03688521 69.93257558 498.17693982 68.70761726 500.1171875 67.0546875 C500.72433594 66.53519531 501.33148437 66.01570312 501.95703125 65.48046875 C502.58996094 64.95066406 503.22289062 64.42085937 503.875 63.875 C504.81279297 63.06869141 504.81279297 63.06869141 505.76953125 62.24609375 C510.47627883 58.25580669 510.47627883 58.25580669 513.15429688 56.94775391 C515.15151185 56.1531478 515.15151185 56.1531478 515.9140625 54.15625 C517.45116732 51.10415698 519.69858271 49.59521139 522.375 47.5 C525.13712789 45.32603412 527.77051529 43.23512118 530.2265625 40.71875 C532 39 532 39 534 39 C534.226875 38.4225 534.45375 37.845 534.6875 37.25 C536.34848222 34.40260191 538.31524561 32.87932807 541 31 C541.66 31 542.32 31 543 31 C543.2578125 30.40703125 543.515625 29.8140625 543.78125 29.203125 C545.09769895 26.82339035 546.42580782 25.49021208 548.5 23.75 C549.1084375 23.22921875 549.716875 22.7084375 550.34375 22.171875 C552 21 552 21 554 21 C554.21140625 20.4534375 554.4228125 19.906875 554.640625 19.34375 C556.48716921 16.16005308 559.03697648 13.92848691 561.75 11.5 C562.26304687 11.02691406 562.77609375 10.55382812 563.3046875 10.06640625 C566.67160179 7.01249655 570.1832958 4.48631016 574 2 C574.66 1.34 575.32 0.68 576 0 C576 370.26 576 740.52 576 1122 C385.92 1122 195.84 1122 0 1122 C0 751.74 0 381.48 0 0 Z " fill="#B6B6B6" transform="translate(688,866)"/>
<path d="M0 0 C2.64 0 5.28 0 8 0 C8 0.66 8 1.32 8 2 C8.96164062 1.95746094 9.92328125 1.91492188 10.9140625 1.87109375 C15.57807619 1.87926804 19.86971422 2.9358569 24.375 4.0625 C25.73443726 4.39640747 25.73443726 4.39640747 27.12133789 4.73706055 C48.87105871 10.15463432 69.92797221 16.69185029 90.71459961 25.08813477 C93.00818842 26.00326715 95.31426361 26.87923142 97.625 27.75 C104.24014933 30.39605973 110.53375355 33.69647903 116.87695312 36.92675781 C118.9891453 37.99451274 121.10970546 39.0432574 123.234375 40.0859375 C130.70005002 43.75630623 137.94310979 47.57802998 145 52 C145.81082031 52.48597656 146.62164063 52.97195313 147.45703125 53.47265625 C164.50487135 63.71183517 180.6418379 75.37871215 196 88 C196.98871094 88.80179688 197.97742187 89.60359375 198.99609375 90.4296875 C209.57236754 99.15976465 219.12032383 108.92862936 228.72680664 118.69506836 C230.36192417 120.35301537 232.00498843 122.00313882 233.65307617 123.64819336 C249.21226016 139.23974848 263.21759438 157.39754102 275 176 C275.60714844 176.95261719 276.21429687 177.90523437 276.83984375 178.88671875 C289.31719397 198.81475663 300.49939155 219.21023147 309.21826172 241.05175781 C310.3693399 243.9204661 311.5586323 246.77283017 312.75 249.625 C313.14574219 250.57761719 313.54148437 251.53023437 313.94921875 252.51171875 C314.789053 254.50047124 315.66917831 256.47219229 316.5625 258.4375 C318.25095732 262.62193771 319.54617006 266.85748973 320.8359375 271.1796875 C321.66158621 273.88936683 322.5151166 276.57300887 323.4140625 279.2578125 C327.24982602 290.81480522 330.06180547 302.44665046 332.47094727 314.37988281 C332.80978212 316.0579519 333.15595035 317.73456707 333.51147461 319.40917969 C335.01620644 326.60310504 336.05711914 333.8465013 337.0625 341.125 C337.23587891 342.32898438 337.40925781 343.53296875 337.58789062 344.7734375 C339.83207267 360.93842691 340.16254571 376.91675904 340.13037109 393.20825195 C340.12501481 396.42859618 340.13034621 399.64880063 340.13671875 402.86914062 C340.14455863 419.51704823 339.64414875 435.78974989 336.953125 452.24023438 C336.62289782 454.26287584 336.30666891 456.28735654 335.9921875 458.3125 C334.82897664 465.67428749 333.39774879 472.924215 331.66064453 480.17236328 C330.83539675 483.70452136 330.22190168 487.23496589 329.625 490.8125 C328.26401811 498.44643869 326.11312472 505.70269261 323.65283203 513.04736328 C323.01559277 514.95336164 322.39623413 516.86530863 321.77734375 518.77734375 C317.82385018 530.89206842 313.6168156 542.93616761 308.17578125 554.47265625 C307.27353663 556.41203256 306.41906845 558.3736945 305.5859375 560.34375 C303.95028657 564.11461026 302.16965611 567.77280996 300.3125 571.4375 C299.59730784 572.85268856 298.88247407 574.26805829 298.16796875 575.68359375 C297.80622559 576.40015137 297.44448242 577.11670898 297.07177734 577.85498047 C296.04658507 579.9067662 295.04463556 581.96804044 294.05078125 584.03515625 C289.33115332 593.79617763 283.92007304 602.92240334 278 612 C277.59523438 612.6276123 277.19046875 613.25522461 276.7734375 613.90185547 C267.7188601 627.92549732 257.71918328 641.20613609 247 654 C246.03466604 655.17537882 245.06985055 656.35118358 244.10546875 657.52734375 C243.11244969 658.72695215 242.11896646 659.92617648 241.125 661.125 C240.6602124 661.69436279 240.1954248 662.26372559 239.71655273 662.8503418 C237.51667384 665.48109575 236.31899788 666.89366737 233 668 C232.71769531 668.56557617 232.43539063 669.13115234 232.14453125 669.71386719 C230.55993778 672.87899799 228.17249654 675.11304411 225.6875 677.578125 C225.15914551 678.10839294 224.63079102 678.63866089 224.08642578 679.18499756 C222.96583746 680.30694502 221.84272686 681.42637814 220.71728516 682.54345703 C219.02668171 684.22348519 217.34684689 685.91373322 215.66796875 687.60546875 C209.42167671 693.8596121 203.03140549 699.62209115 196 705 C194.96153529 705.84069071 193.92687922 706.68613962 192.8984375 707.5390625 C188.18019008 711.4392856 183.43839392 715.24310966 178.4609375 718.80859375 C176.85169576 719.95450947 176.85169576 719.95450947 176 722 C176.85271484 722.10562256 177.70542969 722.21124512 178.58398438 722.32006836 C182.28938483 723.05759982 185.23488003 724.281992 188.65625 725.87890625 C189.28043823 726.16926254 189.90462646 726.45961884 190.54772949 726.7587738 C191.86715786 727.37474192 193.18488429 727.99436738 194.50097656 728.61743164 C196.46229271 729.54467331 198.42970455 730.45777267 200.3984375 731.36914062 C208.16285244 734.99549694 215.64419541 738.94959091 223.04296875 743.2734375 C225.50620769 744.71168269 227.9843299 746.09418102 230.5 747.4375 C239.67395416 752.51136292 248.42019527 758.45860512 256.9140625 764.58984375 C258.88450634 765.92192282 260.84865424 766.9924693 263 768 C263 768.66 263 769.32 263 770 C263.69609375 770.22300781 264.3921875 770.44601562 265.109375 770.67578125 C268.67073253 772.30726801 271.34614811 774.61720157 274.25 777.1875 C275.41404891 778.19813198 276.57941434 779.20724958 277.74609375 780.21484375 C278.58889893 780.94356689 278.58889893 780.94356689 279.44873047 781.68701172 C281.3445797 783.29165087 283.31432316 784.77543019 285.3125 786.25 C290.56625022 790.25841684 295.28532717 794.85584715 300.06567383 799.40722656 C304.02835467 803.17783994 308.05563823 806.83443387 312.21777344 810.38452148 C314.66591084 812.60360712 316.75855547 815.05583387 318.890625 817.57421875 C321.10839294 820.12465189 323.40335981 822.58542048 325.71875 825.046875 C331.45641777 831.14966708 336.89553504 837.35089735 342 844 C342.77730469 844.98226562 343.55460937 845.96453125 344.35546875 846.9765625 C350.20240821 854.39741381 355.54592643 862.07453593 360.69384766 869.99365234 C362.05236914 872.08044291 363.42215274 874.15954989 364.79296875 876.23828125 C376.49617398 894.05723794 386.22229034 912.6203307 395.07788086 931.99243164 C395.76340411 933.48490125 396.45843822 934.97300977 397.15844727 936.45874023 C400.35663715 943.32665989 403.0412177 950.29606689 405.5625 957.4375 C405.93568359 958.47970703 406.30886719 959.52191406 406.69335938 960.59570312 C413.99515798 981.07883556 413.99515798 981.07883556 416 990.3125 C417.17530224 995.56055097 418.48263936 1000.7124175 420 1005.875 C423.11558507 1017.35605366 424.42844359 1029.22891415 426 1041 C426.11617676 1041.85513184 426.23235352 1042.71026367 426.35205078 1043.59130859 C428.618188 1060.47421045 429.17057361 1077.35191884 429.13037109 1094.3684082 C429.12499697 1097.06402181 429.13036522 1099.75946941 429.13671875 1102.45507812 C429.14365244 1117.46900482 428.52435686 1132.33656036 426.6875 1147.25 C426.55996338 1148.29994141 426.43242676 1149.34988281 426.30102539 1150.43164062 C424.99889576 1160.71234522 423.14619141 1170.86460566 421 1181 C420.8364502 1181.78503906 420.67290039 1182.57007813 420.50439453 1183.37890625 C419.58055399 1187.69797346 418.48227104 1191.83111271 417 1196 C415.8411804 1199.38307407 414.77422319 1202.68311058 414.0625 1206.1875 C411.85526135 1216.83645838 408.55027349 1227.22659016 404.1796875 1237.17578125 C402.96618649 1240.08095088 402.00288437 1242.99621026 401.0625 1246 C399.34573613 1251.32475949 397.06589071 1256.1664625 394.46484375 1261.11328125 C392.82175263 1264.35126615 391.42979256 1267.66261988 390 1271 C388.76744861 1273.60280479 387.48289787 1276.17798268 386.1875 1278.75 C385.83276611 1279.45463379 385.47803223 1280.15926758 385.11254883 1280.88525391 C377.19363084 1296.5442929 368.39261145 1311.83816049 358 1326 C357.15986455 1327.15864271 356.32004665 1328.31751572 355.48046875 1329.4765625 C352.67698758 1333.3351386 349.84458121 1337.17165161 347 1341 C346.52498047 1341.64098633 346.04996094 1342.28197266 345.56054688 1342.94238281 C344.19385573 1344.77999024 342.81762051 1346.60996521 341.4375 1348.4375 C340.81137817 1349.28018433 340.81137817 1349.28018433 340.17260742 1350.13989258 C339.1630295 1351.46455769 338.08723701 1352.73829443 337 1354 C336.34 1354 335.68 1354 335 1354 C334.62113647 1354.83954224 334.62113647 1354.83954224 334.23461914 1355.69604492 C328.97954201 1365.50268183 319.73314787 1373.58168646 311.9074707 1381.35327148 C310.06160023 1383.18839453 308.22670681 1385.03400897 306.39257812 1386.88085938 C292.93195674 1400.35868081 292.93195674 1400.35868081 286 1405 C285.34 1405 284.68 1405 284 1405 C283.814375 1405.556875 283.62875 1406.11375 283.4375 1406.6875 C281.35889174 1410.03134807 278.39186398 1412.04807828 275 1414 C274.34 1414 273.68 1414 273 1414 C273 1414.66 273 1415.32 273 1416 C271.67749023 1417.16992188 271.67749023 1417.16992188 269.80859375 1418.46875 C268.77472534 1419.19372681 268.77472534 1419.19372681 267.7199707 1419.93334961 C266.96675537 1420.45034424 266.21354004 1420.96733887 265.4375 1421.5 C264.66172607 1422.03826416 263.88595215 1422.57652832 263.08666992 1423.13110352 C260.72948236 1424.76152166 258.36518295 1426.3812109 256 1428 C255.36545898 1428.43940918 254.73091797 1428.87881836 254.07714844 1429.33154297 C231.53013564 1444.94053557 207.12368304 1459.04356332 181.52734375 1469 C178.66087228 1470.13418346 175.83396066 1471.34949263 173 1472.5625 C168.55600719 1474.42172148 164.13889686 1475.95569697 159.5078125 1477.26953125 C156.93182529 1478.01985774 154.41085059 1478.87391168 151.875 1479.75 C111.00853269 1493.38957541 68.64083786 1500.15163128 25.5625 1500.1875 C24.85758423 1500.18858765 24.15266846 1500.18967529 23.4263916 1500.1907959 C21.3896247 1500.19043826 19.3531268 1500.18123508 17.31640625 1500.16796875 C16.14537354 1500.16047607 14.97434082 1500.1529834 13.76782227 1500.14526367 C9.1661163 1499.96785066 4.58227031 1499.45822703 0 1499 C0 1004.33 0 509.66 0 0 Z " fill="#1D2846" transform="translate(1465,490)"/>
<path d="M0 0 C218.79 0 437.58 0 663 0 C660.90488443 4.19023114 658.53871251 6.3789691 655 9.25 C654.4534375 9.70890625 653.906875 10.1678125 653.34375 10.640625 C649.26450893 14 649.26450893 14 647 14 C646.67 14.99 646.34 15.98 646 17 C643.78515625 19.04296875 643.78515625 19.04296875 641.0625 21.1875 C640.16660156 21.90292969 639.27070312 22.61835937 638.34765625 23.35546875 C636 25 636 25 634 25 C633.74734375 25.598125 633.4946875 26.19625 633.234375 26.8125 C631.83603722 29.29056695 630.54773448 30.34148489 628.25 32 C624.10989031 35.10508227 620.16358319 38.3684961 616.25 41.75 C615.03776146 42.79557412 613.82552187 43.84114703 612.61328125 44.88671875 C612.01080566 45.40669434 611.40833008 45.92666992 610.78759766 46.46240234 C608.01763219 48.84498122 605.22883919 51.20503016 602.4375 53.5625 C601.90543945 54.01206055 601.37337891 54.46162109 600.82519531 54.92480469 C599.75320455 55.8303736 598.68110199 56.7358102 597.60888672 57.64111328 C595.44696837 59.46709773 593.2867642 61.29510325 591.12670898 63.12329102 C590.04433746 64.03931879 588.96181847 64.95517236 587.87915039 65.87084961 C585.14363268 68.18456788 582.40998789 70.50043895 579.6796875 72.8203125 C573.67572799 77.91779705 567.63202545 82.95509996 561.515625 87.91796875 C558.45037001 90.45489563 555.49112118 93.09649805 552.55859375 95.78515625 C551 97 551 97 549 97 C549 97.66 549 98.32 549 99 C547.26608049 100.60634015 545.461909 102.1375287 543.625 103.625 C542.62726562 104.44226563 541.62953125 105.25953125 540.6015625 106.1015625 C538 108 538 108 536 108 C536 108.66 536 109.32 536 110 C534.51261765 111.35382149 532.95569449 112.63139886 531.375 113.875 C526.83920239 117.50130606 522.39390178 121.20323371 518 125 C513.60665846 128.77829784 509.20348164 132.54265141 504.75 136.25 C503.87859375 136.97703125 503.0071875 137.7040625 502.109375 138.453125 C500 140 500 140 498 140 C497.67 140.99 497.34 141.98 497 143 C495.1015625 144.7265625 495.1015625 144.7265625 492.625 146.625 C491.72652344 147.32496094 490.82804687 148.02492188 489.90234375 148.74609375 C488.94457031 149.48988281 487.98679687 150.23367188 487 151 C485.05663998 152.55520556 483.11903708 154.11763472 481.1875 155.6875 C479.87845703 156.74517578 479.87845703 156.74517578 478.54296875 157.82421875 C475.93623641 159.99704618 475.93623641 159.99704618 473.4453125 162.55859375 C471.2831467 164.71730561 469.12694249 166.54653305 466.6875 168.375 C462.28803206 171.74015594 458.1315 175.31381138 454 179 C449.87340522 182.67459454 445.70975284 186.25936213 441.375 189.6875 C435.99711537 193.95357081 430.80468507 198.41854738 425.60546875 202.8984375 C422.0863926 205.93057947 418.54727076 208.93842039 415 211.9375 C414.4846167 212.37360596 413.9692334 212.80971191 413.43823242 213.2590332 C411.96044832 214.50794949 410.48024228 215.75399819 409 217 C408.45988281 217.47066895 407.91976563 217.94133789 407.36328125 218.42626953 C403.21589612 222 403.21589612 222 401 222 C400.67 222.99 400.34 223.98 400 225 C397.86753932 226.81317742 395.73529921 228.51102559 393.5 230.1875 C388.34065731 234.13074953 383.41314453 238.18955053 378.671875 242.63671875 C377 244 377 244 375 244 C375 244.66 375 245.32 375 246 C373.26608049 247.60634015 371.461909 249.1375287 369.625 250.625 C368.62726563 251.44226563 367.62953125 252.25953125 366.6015625 253.1015625 C364 255 364 255 362 255 C361.67 255.99 361.34 256.98 361 258 C358.78515625 260.04296875 358.78515625 260.04296875 356.0625 262.1875 C355.16660156 262.90292969 354.27070312 263.61835937 353.34765625 264.35546875 C351 266 351 266 349 266 C348.67 266.99 348.34 267.98 348 269 C346.20703125 270.62109375 346.20703125 270.62109375 343.8125 272.4375 C339.50231908 275.78986294 335.31943068 279.24567834 331.1875 282.8125 C329.98703311 283.8464168 328.78651193 284.88027057 327.5859375 285.9140625 C326.99006836 286.42743164 326.39419922 286.94080078 325.78027344 287.46972656 C317.28733162 294.77002268 308.68776653 301.93262034 300 309 C297.93645121 310.68622162 295.8745333 312.37442421 293.8125 314.0625 C292.20833333 315.375 290.60416667 316.6875 289 318 C284.06123788 316.48109769 280.89141746 313.56583757 277.125 310.1875 C273.54496135 307.0048063 270.00981468 303.95034002 266.0546875 301.23828125 C265.04664063 300.49964844 264.03859375 299.76101563 263 299 C263 298.34 263 297.68 263 297 C262.34 296.814375 261.68 296.62875 261 296.4375 C257.55275135 294.78569335 255.27364494 292.70250518 252.4609375 290.1484375 C249.44178419 287.51266873 246.30367037 285.06420019 243.125 282.625 C242.55330078 282.18414063 241.98160156 281.74328125 241.39257812 281.2890625 C238.33015905 278.93659191 238.33015905 278.93659191 235 277 C235 276.34 235 275.68 235 275 C234.47535156 274.77441406 233.95070313 274.54882812 233.41015625 274.31640625 C230.14641832 272.53378116 227.33221008 270.25200675 224.4375 267.9375 C223.50550781 267.19886719 223.50550781 267.19886719 222.5546875 266.4453125 C217.95070238 262.7867042 213.40110634 259.06363184 208.859375 255.328125 C205.51375615 252.60409654 202.1387678 249.92004716 198.75 247.25 C198.18345703 246.80205078 197.61691406 246.35410156 197.03320312 245.89257812 C194.10627116 243.59406563 191.14686761 241.40335862 188.078125 239.296875 C186.55445313 238.15992188 186.55445313 238.15992188 185 237 C185 236.34 185 235.68 185 235 C184.21882813 234.6596875 184.21882813 234.6596875 183.421875 234.3125 C180.12315465 232.52480639 177.21542579 230.28109676 174.25 228 C173.64800781 227.54882812 173.04601562 227.09765625 172.42578125 226.6328125 C170.91093644 225.47177498 169.45030179 224.24072061 168 223 C168 222.34 168 221.68 168 221 C167.34 220.814375 166.68 220.62875 166 220.4375 C162.4619913 218.74220416 160.05471442 216.54186663 157.1640625 213.921875 C154.32663443 211.40199303 151.34003013 209.11186727 148.33203125 206.80078125 C145.96999716 204.97683198 143.63872691 203.11935747 141.3125 201.25 C137.05493219 197.83724092 132.78341431 194.44272862 128.5 191.0625 C127.58214722 190.33498535 127.58214722 190.33498535 126.64575195 189.59277344 C123.47636933 187.06291739 123.47636933 187.06291739 120 185 C120 184.34 120 183.68 120 183 C119.41299316 182.72760498 118.82598633 182.45520996 118.22119141 182.17456055 C116.04573186 181.02418289 114.34492565 179.78185876 112.4609375 178.20703125 C111.80254883 177.66232178 111.14416016 177.1176123 110.46582031 176.55639648 C109.77584961 175.98091064 109.08587891 175.4054248 108.375 174.8125 C103.0753136 170.43875654 97.75970035 166.2507116 92.015625 162.46484375 C90 161 90 161 88.14453125 159.140625 C85.43733526 156.43836015 82.46055728 154.14385475 79.4375 151.8125 C74.0518564 147.62452564 68.74694261 143.35497256 63.48828125 139.0078125 C60.52696175 136.61830195 57.47508128 134.38026759 54.36328125 132.19140625 C53.68845703 131.60166016 53.68845703 131.60166016 53 131 C53 130.34 53 129.68 53 129 C51.95199219 128.6596875 51.95199219 128.6596875 50.8828125 128.3125 C47.39233787 126.72334082 44.73654514 124.49760798 41.875 122 C38.99098913 119.51989238 36.1725641 117.11504273 33 115 C33 114.34 33 113.68 33 113 C32.34 112.814375 31.68 112.62875 31 112.4375 C27.56885116 110.79340785 25.31085594 108.74243482 22.51171875 106.19921875 C18.8294993 102.97512925 14.96423937 99.99760139 11.09985352 96.99633789 C10.52807373 96.55153076 9.95629395 96.10672363 9.3671875 95.6484375 C8.86300293 95.25833496 8.35881836 94.86823242 7.83935547 94.46630859 C5.19062998 92.35478148 2.60225175 90.16854312 0 88 C0 58.96 0 29.92 0 0 Z " fill="#1D2846" transform="translate(688,490)"/>
</svg>
