<?xml version="1.0" encoding="UTF-8"?>
<svg version="1.1" xmlns="http://www.w3.org/2000/svg" width="2480" height="2480">
<path d="M0 0 C4.43356948 2.95571298 8.18159333 5.82294056 12 9.4375 C15.01659736 12.26948788 18.03590834 15.06291031 21.2265625 17.69921875 C23.99537361 19.99616205 26.4571769 22.4571769 29 25 C30.85276872 26.64883399 32.72896477 28.26886631 34.60546875 29.890625 C38.11572748 32.98285945 41.54194803 36.16565438 44.96313477 39.35595703 C47.76202583 41.98148216 47.76202583 41.98148216 51 44 C51 44.66 51 45.32 51 46 C51.99 46.33 52.98 46.66 54 47 C55.68873879 48.64429829 57.35305515 50.31384218 59 52 C59.928125 52.721875 60.85625 53.44375 61.8125 54.1875 C62.534375 54.785625 63.25625 55.38375 64 56 C64 56.66 64 57.32 64 58 C64.86625 58.0928125 64.86625 58.0928125 65.75 58.1875 C68.91500782 59.33041949 69.92423528 61.34763397 72 64 C77.19407625 68.95966426 82.89291603 73.38958818 88.484375 77.88671875 C90.79940304 79.83148609 92.97586925 81.75359321 95 84 C95 84.66 95 85.32 95 86 C95.55558594 86.23589844 96.11117187 86.47179687 96.68359375 86.71484375 C99.56375591 88.3127752 101.66369076 90.305005 104.0625 92.5625 C108.83483941 96.99441681 113.74600477 101.08080542 118.8828125 105.08984375 C121 107 121 107 122 110 C123.485 110.495 123.485 110.495 125 111 C125 111.66 125 112.32 125 113 C125.99 113 126.98 113 128 113 C129.1108579 114.35385806 130.21531703 115.71331395 131.29296875 117.09375 C134.23953217 120.38419154 137.75774678 122.99249471 141.1953125 125.75 C143.72434299 127.77886011 146.22216549 129.83187622 148.6875 131.9375 C149.33074219 132.48277344 149.97398437 133.02804687 150.63671875 133.58984375 C152 135 152 135 152 137 C152.99 137.33 153.98 137.66 155 138 C156.18741378 139.15348767 157.36889854 140.31386789 158.515625 141.5078125 C160.09291665 143.09340568 161.74096484 144.5427198 163.4375 146 C167.32539628 149.35972924 171.06704016 152.85895716 174.8125 156.375 C179.97608971 161.21257048 185.25129843 165.79188631 190.79296875 170.1953125 C192.66223175 171.7238072 194.41847519 173.17635249 196 175 C196 175.66 196 176.32 196 177 C196.56847656 177.24878906 197.13695312 177.49757813 197.72265625 177.75390625 C200.35171777 179.19244934 202.2453153 180.89318611 204.4375 182.9375 C209.00151207 187.12907785 213.6783552 191.14828955 218.44506836 195.10522461 C221.80718015 197.91680298 224.92094808 200.88385107 228 204 C228.825 204.66 229.65 205.32 230.5 206 C233.20977229 208.16781783 235.54759331 210.54407983 238 213 C240.02146837 214.91805992 242.07064803 216.80477095 244.125 218.6875 C244.64964844 219.17283203 245.17429687 219.65816406 245.71484375 220.15820312 C248.06509902 222.31508296 250.33937022 224.22624681 253 226 C253 226.66 253 227.32 253 228 C254.32 228.66 255.64 229.32 257 230 C257 230.66 257 231.32 257 232 C257.99 232 258.98 232 260 232 C261.11898694 233.36376533 262.23170484 234.73295795 263.3203125 236.12109375 C265.32637908 238.36508916 267.51701555 240.12830611 269.875 242 C274.68653048 245.84141134 279.20765233 249.90244841 283.6875 254.125 C289.53988997 259.63924537 295.37523925 265.13391011 301.6875 270.125 C304.31478275 272.25522925 306.60810993 274.60810993 309 277 C316.304401 283.79123681 323.70512102 290.50932851 331.4375 296.8125 C334 299 334 299 335 301 C335.99 301.33 336.98 301.66 338 302 C338 302.66 338 303.32 338 304 C339.75224914 302.58611621 341.50170655 301.16877217 343.25 299.75 C344.22453125 298.96109375 345.1990625 298.1721875 346.203125 297.359375 C348.98297251 295.09277734 348.98297251 295.09277734 351.234375 292.703125 C353 291 353 291 355 291 C355 290.34 355 289.68 355 289 C356.6796875 287.2734375 356.6796875 287.2734375 358.875 285.375 C359.95394531 284.42753906 359.95394531 284.42753906 361.0546875 283.4609375 C363 282 363 282 365 282 C365.33 281.01 365.66 280.02 366 279 C366.66 279 367.32 279 368 279 C368 278.34 368 277.68 368 277 C369.36328125 275.58984375 369.36328125 275.58984375 371.3125 273.9375 C372.03695313 273.31875 372.76140625 272.7 373.5078125 272.0625 C376.21154101 269.82493158 378.94992986 267.63349122 381.6875 265.4375 C384.77636121 262.94248624 387.55492933 260.56955428 390 257.4375 C390.66 256.633125 391.32 255.82875 392 255 C392.99 255 393.98 255 395 255 C395.33 254.01 395.66 253.02 396 252 C396.66 252 397.32 252 398 252 C398.3403125 251.13955078 398.3403125 251.13955078 398.6875 250.26171875 C400.36282808 247.37476947 402.37004834 245.863414 405 243.8125 C414.65275398 236.92053834 414.65275398 236.92053834 422 228 C422.99 228 423.98 228 425 228 C425.33 227.01 425.66 226.02 426 225 C427.77734375 223.17578125 427.77734375 223.17578125 429.9375 221.3125 C431.00291016 220.37857422 431.00291016 220.37857422 432.08984375 219.42578125 C434 218 434 218 436 218 C436.33 217.01 436.66 216.02 437 215 C438.53125 213.45703125 438.53125 213.45703125 440.5 211.8125 C444.46031708 208.46696139 448.29845331 205.00995663 452.1171875 201.50390625 C454 200 454 200 456 200 C456 199.34 456 198.68 456 198 C457.6796875 196.2734375 457.6796875 196.2734375 459.875 194.375 C460.59429688 193.74335937 461.31359375 193.11171875 462.0546875 192.4609375 C464 191 464 191 466 191 C466.33 190.01 466.66 189.02 467 188 C467.66 188 468.32 188 469 188 C469 187.34 469 186.68 469 186 C470.49109234 184.67018907 472.04706714 183.4130127 473.625 182.1875 C479.15914351 177.78321414 484.30718564 173.06973601 489.40283203 168.16674805 C493.78986237 164 493.78986237 164 496 164 C496.33 163.01 496.66 162.02 497 161 C498.4609375 159.52734375 498.4609375 159.52734375 500.375 157.9375 C503.85986222 154.9853955 507.25807504 151.96134788 510.625 148.875 C513.57427483 146.1796905 516.52406986 143.51950574 519.625 141 C522.05363734 139.22280125 522.05363734 139.22280125 523 137 C523.99 136.67 524.98 136.34 526 136 C526.9590625 134.7625 526.9590625 134.7625 527.9375 133.5 C530.15580511 130.81114532 530.78551213 130.66506646 534 130 C534.33 129.01 534.66 128.02 535 127 C535.66 127 536.32 127 537 127 C537.33 126.01 537.66 125.02 538 124 C539.53125 122.45703125 539.53125 122.45703125 541.5 120.8125 C545.46031708 117.46696139 549.29845331 114.00995663 553.1171875 110.50390625 C555 109 555 109 557 109 C557 108.34 557 107.68 557 107 C558.6796875 105.2734375 558.6796875 105.2734375 560.875 103.375 C561.59429688 102.74335937 562.31359375 102.11171875 563.0546875 101.4609375 C565 100 565 100 567 100 C567.33 99.01 567.66 98.02 568 97 C569.49609375 95.4921875 569.49609375 95.4921875 571.4375 93.875 C574.67276433 91.13168105 577.85588199 88.34768648 581 85.5 C586.31964268 80.70253083 591.64560433 75.91568806 597.1875 71.375 C600.06082306 69.02531468 600.06082306 69.02531468 602.6875 66.25 C605 64 605 64 608 63 C608.33 62.01 608.66 61.02 609 60 C610.69660916 58.47988374 612.45678036 57.02984854 614.25 55.625 C618.08797631 52.6064835 621.57422874 49.47794037 625 46 C625.886875 45.29875 626.77375 44.5975 627.6875 43.875 C630.19153669 42.03438927 630.19153669 42.03438927 632 39 C632.99 39 633.98 39 635 39 C635.33 38.01 635.66 37.02 636 36 C636.66 36 637.32 36 638 36 C638.22042969 35.43152344 638.44085937 34.86304688 638.66796875 34.27734375 C640.41363006 31.29282603 642.59240623 29.68630799 645.3125 27.5625 C649.13221883 24.5661312 652.59372466 21.4579726 656 18 C657.36125 16.9171875 657.36125 16.9171875 658.75 15.8125 C661.07487388 14.19690923 661.07487388 14.19690923 662 12 C662.99 12 663.98 12 665 12 C665.33 11.01 665.66 10.02 666 9 C667.70703125 7.24609375 667.70703125 7.24609375 669.8125 5.4375 C670.49957031 4.83808594 671.18664063 4.23867188 671.89453125 3.62109375 C674 2 674 2 678 0 C678 436.26 678 872.52 678 1322 C454.26 1322 230.52 1322 0 1322 C0 885.74 0 449.48 0 0 Z " fill="#D6D6D5" transform="translate(532,799)"/>
<path d="M0 0 C23.73104201 0 48.60700531 7.45519047 71 15 C71.71542969 15.23460937 72.43085937 15.46921875 73.16796875 15.7109375 C78.16117065 17.35280273 83.10228495 19.11195739 88.03125 20.9375 C90.42745407 21.79508882 92.82779123 22.6032261 95.24609375 23.39453125 C108.68306807 27.8549029 121.58902001 33.50909241 134.13720703 40.03857422 C136.58773947 41.30334443 139.05905166 42.52390186 141.53173828 43.74462891 C158.18400286 51.97715785 158.18400286 51.97715785 164.4375 56.3125 C166.73582396 57.82603041 168.31054536 58.58623775 171 59 C171 59.66 171 60.32 171 61 C173.97 61.99 173.97 61.99 177 63 C177 63.66 177 64.32 177 65 C177.886875 65.268125 178.77375 65.53625 179.6875 65.8125 C182.7909666 66.9250635 185.31110685 68.10195778 188 70 C188 70.66 188 71.32 188 72 C188.73347656 72.27070313 189.46695312 72.54140625 190.22265625 72.8203125 C192.89068585 73.95356839 195.05532193 75.2359256 197.4375 76.875 C200.12054497 78.71454588 202.8107116 80.51546039 205.5625 82.25 C206.7690625 83.11625 206.7690625 83.11625 208 84 C208 84.66 208 85.32 208 86 C208.66 86.20625 209.32 86.4125 210 86.625 C214.07180186 88.49124252 217.68796998 90.97561527 221 94 C221 94.66 221 95.32 221 96 C222.32 96.33 223.64 96.66 225 97 C225 97.66 225 98.32 225 99 C225.56847656 99.26167969 226.13695312 99.52335937 226.72265625 99.79296875 C232.91514585 103.07509446 238.14699391 108.01218819 243 113 C243.9075 113.721875 244.815 114.44375 245.75 115.1875 C248 117 248 117 249 119 C249.99 119.33 250.98 119.66 252 120 C253.53857422 121.56201172 253.53857422 121.56201172 255.1796875 123.5546875 C258.94061985 127.98756783 262.97757448 132.05597572 267.125 136.125 C274.78023758 143.63714903 274.78023758 143.63714903 277.8671875 147.4296875 C279.74008867 150.03785209 279.74008867 150.03785209 282 151 C282 151.99 282 152.98 282 154 C282.99 154.33 283.98 154.66 285 155 C286.83984375 156.9765625 286.83984375 156.9765625 288.9375 159.625 C289.73414063 160.6253125 290.53078125 161.625625 291.3515625 162.65625 C291.77985352 163.19894531 292.20814453 163.74164062 292.64941406 164.30078125 C294.02922977 166.03677499 295.42967843 167.7541259 296.8359375 169.46875 C304.3493559 178.67047918 311.26916992 188.21464772 318 198 C318.68835937 198.99128906 319.37671875 199.98257813 320.0859375 201.00390625 C324 206.72799296 324 206.72799296 324 209 C324.66 209 325.32 209 326 209 C326.67154933 210.28913487 327.33708859 211.58140204 328 212.875 C328.37125 213.59429688 328.7425 214.31359375 329.125 215.0546875 C330 217 330 217 330 219 C330.66 219 331.32 219 332 219 C333.515625 221.23828125 333.515625 221.23828125 335.25 224.3125 C335.86746094 225.405625 336.48492188 226.49875 337.12109375 227.625 C337.74113281 228.73875 338.36117188 229.8525 339 231 C339.56847656 231.99 340.13695312 232.98 340.72265625 234 C343.51505284 238.9398662 345.76663214 243.44984461 347 249 C347.66 249 348.32 249 349 249 C351.65063247 254.11193404 353.9439259 259.21583748 355.97265625 264.60546875 C356.9599702 267.06180954 356.9599702 267.06180954 358.46875 269.4140625 C360.15544074 272.26250452 361.28515493 275.08561376 362.4375 278.1875 C363.94729249 282.20155907 365.46321464 286.2081758 367.0625 290.1875 C367.38347656 290.98671875 367.70445312 291.7859375 368.03515625 292.609375 C368.68707534 294.22465631 369.34076732 295.83922305 369.99609375 297.453125 C374.7124521 309.12473554 378.56734497 320.89745653 382 333 C382.2784375 333.98097656 382.556875 334.96195313 382.84375 335.97265625 C387.69507225 353.45323586 392.43905731 371.22851022 394.5078125 389.27734375 C394.90233961 392.26134639 395.39309099 395.17051303 395.953125 398.125 C405.33898638 449.15899927 401.85509727 504.36397448 392 555 C391.78504883 556.1329248 391.57009766 557.26584961 391.34863281 558.43310547 C388.59057969 572.81497139 385.05815003 586.89428631 380.9375 600.9375 C380.72985016 601.64820648 380.52220032 602.35891296 380.30825806 603.09115601 C377.90360062 611.27164924 375.23426391 619.28462798 372.09594727 627.21948242 C370.79742614 630.51394824 369.64291092 633.8363219 368.5 637.1875 C366.73477706 642.17977114 364.70705321 646.82405481 362.25 651.5078125 C360.85475819 654.28957585 359.67337586 657.11789554 358.5 660 C356.58009805 664.70587953 354.45568865 669.23676876 352.11328125 673.74609375 C350.94043441 676.12059419 349.95388092 678.53036309 349 681 C348.34 681 347.68 681 347 681 C346.731875 681.86625 346.46375 682.7325 346.1875 683.625 C343.99134747 689.86669667 340.63169674 695.51401154 337.375 701.25 C334.60309817 706.07963583 334.60309817 706.07963583 332 711 C331.34 711 330.68 711 330 711 C329.71125 711.9075 329.4225 712.815 329.125 713.75 C328.23468224 716.32202908 327.28505587 718.61346766 326 721 C325.34 721 324.68 721 324 721 C323.690625 721.78375 323.38125 722.5675 323.0625 723.375 C322 726 322 726 321 728 C320.34 728 319.68 728 319 728 C318.89558594 728.56203125 318.79117187 729.1240625 318.68359375 729.703125 C317.87386765 732.42380471 316.63796662 734.39257807 315.0625 736.75 C314.53785156 737.54921875 314.01320313 738.3484375 313.47265625 739.171875 C312.74369141 740.07679688 312.74369141 740.07679688 312 741 C311.34 741 310.68 741 310 741 C309.7306665 741.74169434 309.46133301 742.48338867 309.18383789 743.24755859 C308.04529827 745.89468082 306.83411413 747.78733096 305.05859375 750.0390625 C304.47883789 750.77970947 303.89908203 751.52035645 303.30175781 752.28344727 C302.68655273 753.05615967 302.07134766 753.82887207 301.4375 754.625 C300.81069336 755.420271 300.18388672 756.21554199 299.53808594 757.03491211 C297.69916838 759.36236593 295.85118326 761.68229595 294 764 C293.50322754 764.62503418 293.00645508 765.25006836 292.49462891 765.89404297 C285.40701985 774.79649007 285.40701985 774.79649007 283 776 C282.67 776.99 282.34 777.98 282 779 C280.58279679 780.18100268 279.16152758 781.35752284 277.71850586 782.50683594 C275.90751956 784.08035379 274.42416569 785.74400322 272.87890625 787.578125 C268.65923589 792.46338486 264.13624084 797.01055618 259.5625 801.5625 C258.75490234 802.37396484 257.94730469 803.18542969 257.11523438 804.02148438 C252.23883366 808.89002627 247.22528489 813.51099543 242 818 C239.45689575 820.28701543 236.92471598 822.58543603 234.39453125 824.88671875 C227.4676525 831 227.4676525 831 225 831 C225 831.66 225 832.32 225 833 C223.68 833.33 222.36 833.66 221 834 C221 834.66 221 835.32 221 836 C219.26451831 837.44526736 217.46024037 838.8087222 215.625 840.125 C214.62726563 840.84945312 213.62953125 841.57390625 212.6015625 842.3203125 C210 844 210 844 208 844 C210.20895192 846.46060467 212.21042098 847.72465216 215.25 849 C215.97703125 849.309375 216.7040625 849.61875 217.453125 849.9375 C218.29359375 850.288125 219.1340625 850.63875 220 851 C233.35093435 856.61364811 246.44571579 862.84659157 258.9296875 870.1953125 C261.8384791 871.90506024 264.77843678 873.52747437 267.75 875.125 C274.13865132 878.58747966 280.43208785 882.21521141 286.4375 886.3125 C288.95504324 888.12816033 288.95504324 888.12816033 292 889 C292 889.66 292 890.32 292 891 C294.33214148 892.20628008 296.49642139 893.1654738 299 894 C299 894.66 299 895.32 299 896 C299.721875 896.2475 300.44375 896.495 301.1875 896.75 C304.25057808 898.11136803 306.41334339 899.88983277 309 902 C309.99 902.33 310.98 902.66 312 903 C313.34453722 904.3220345 314.67639864 905.65700521 316 907 C317.68337611 908.24286648 319.39275168 909.45120786 321.125 910.625 C323.63157499 912.32828092 325.85646972 913.85646972 328 916 C331.0592381 918.70508985 334.11888416 921.36740401 337.4375 923.75 C338.2109375 924.36875 338.2109375 924.36875 339 925 C339 925.66 339 926.32 339 927 C339.5775 927.061875 340.155 927.12375 340.75 927.1875 C343.87187385 928.31484334 344.99772302 930.4164168 347 933 C347.99 933.33 348.98 933.66 350 934 C351.47265625 935.53125 351.47265625 935.53125 353.0625 937.5 C355.8230494 940.76723252 358.71918992 943.62024087 361.9375 946.4375 C366.065037 950.06320879 369.67589637 953.9091662 373.25390625 958.0703125 C375.05350455 960.16425222 375.05350455 960.16425222 377.75 962.1875 C380.53694154 964.43253624 382.04909475 967.01267633 384 970 C384.886875 970.886875 385.77375 971.77375 386.6875 972.6875 C389 975 389 975 390 978 C390.99 978.33 391.98 978.66 393 979 C394.80329153 981.09135727 396.47535202 983.16913065 398.125 985.375 C398.58003906 985.96539063 399.03507812 986.55578125 399.50390625 987.1640625 C401.4705742 989.75516212 402.964438 991.89331401 404 995 C404.66 995 405.32 995 406 995 C407.48046875 996.8359375 407.48046875 996.8359375 409.1875 999.375 C409.81011719 1000.29023437 410.43273438 1001.20546875 411.07421875 1002.1484375 C411.70972656 1003.08945313 412.34523438 1004.03046875 413 1005 C414.16321745 1006.66907581 415.32979026 1008.3358191 416.5 1010 C417.35464844 1011.22589844 417.35464844 1011.22589844 418.2265625 1012.4765625 C419.45895075 1014.23013698 420.70476738 1015.97431984 421.9609375 1017.7109375 C422.90839844 1019.02964844 422.90839844 1019.02964844 423.875 1020.375 C424.44992187 1021.16648437 425.02484375 1021.95796875 425.6171875 1022.7734375 C426.93975765 1024.9029996 427.5637594 1026.55034126 428 1029 C428.66 1029 429.32 1029 430 1029 C430.66 1030.98 431.32 1032.96 432 1035 C432.66 1035 433.32 1035 434 1035 C434.52787109 1035.98226563 434.52787109 1035.98226563 435.06640625 1036.984375 C437.80007453 1042.03773568 440.58884323 1047.04649494 443.5 1052 C450.0220298 1063.1190552 456.25564882 1074.33498075 460.90234375 1086.375 C462.12374644 1089.29593455 463.54053125 1092.065797 465 1094.875 C467.56954811 1099.90406519 469.43579262 1104.93002247 471.1328125 1110.30859375 C472.52859698 1114.64055549 474.29525898 1118.68028172 476.44140625 1122.69921875 C478.16918368 1126.35829627 479.30259862 1130.05182639 480.375 1133.9375 C481.92801977 1139.4208635 483.60037117 1144.811192 485.5 1150.1875 C488.48381511 1159.00840341 490.39749403 1168.03218685 492.36621094 1177.12402344 C492.99265948 1179.96669054 493.650369 1182.80010587 494.3203125 1185.6328125 C501.86631417 1217.60934522 504.53774373 1249.64892523 504.39111328 1282.43188477 C504.37400741 1286.29241416 504.38421445 1290.15232327 504.40143967 1294.01283169 C504.50166515 1320.56728935 502.44769654 1346.39423383 497.46435547 1372.53125 C497.03783493 1374.79885024 496.63922373 1377.06884406 496.25390625 1379.34375 C494.89112913 1387.25646432 493.04412676 1394.91753226 490.80102539 1402.62426758 C489.75960062 1406.20316148 488.81026285 1409.76339567 488.03515625 1413.41015625 C486.96474751 1418.36280171 485.52140674 1423.16927646 484 1428 C483.74686035 1428.80405273 483.4937207 1429.60810547 483.23291016 1430.43652344 C479.05263498 1443.53243899 474.27401735 1456.30826032 469 1469 C468.59998779 1469.97573975 468.59998779 1469.97573975 468.19189453 1470.97119141 C464.54835682 1479.85364802 460.38759878 1488.41212977 456.03222656 1496.95898438 C455.00416891 1498.99175683 453.99519599 1501.03288971 452.9921875 1503.078125 C448.64783543 1511.92118618 444.01485545 1520.51439161 439 1529 C438.62697754 1529.63357422 438.25395508 1530.26714844 437.86962891 1530.91992188 C433.78047556 1537.85138887 429.64701509 1544.72310299 425.09375 1551.36328125 C423.93966032 1553.01640696 423.93966032 1553.01640696 423 1555 C422.34 1555 421.68 1555 421 1555 C420.5978125 1556.0828125 420.5978125 1556.0828125 420.1875 1557.1875 C419.00098638 1559.99766383 417.72514361 1562.48416557 416 1565 C415.34 1565 414.68 1565 414 1565 C414 1565.99 414 1566.98 414 1568 C412.69857198 1569.36449282 411.35930751 1570.69315699 410 1572 C408.12593282 1574.60946063 406.35893708 1577.27426975 404.5859375 1579.953125 C404.06257813 1580.62859375 403.53921875 1581.3040625 403 1582 C402.34 1582 401.68 1582 401 1582 C400.773125 1582.52078125 400.54625 1583.0415625 400.3125 1583.578125 C398.52480639 1586.87684535 396.28109676 1589.78457421 394 1592.75 C393.32324219 1593.65298828 393.32324219 1593.65298828 392.6328125 1594.57421875 C391.47177498 1596.08906356 390.24072061 1597.54969821 389 1599 C388.34 1599 387.68 1599 387 1599 C387 1599.99 387 1600.98 387 1602 C385.60230149 1603.19315727 384.19572314 1604.37722767 382.75 1605.51171875 C380.93397372 1607.05615182 379.4723525 1608.67736265 377.9375 1610.5 C373.12452026 1616.15282855 367.78949356 1621.294967 362.50878906 1626.50537109 C361.08292272 1627.91785552 359.66994564 1629.34331701 358.2578125 1630.76953125 C355.95915163 1633.04035367 353.52142056 1634.98286355 351 1637 C350.13375 1637.886875 349.2675 1638.77375 348.375 1639.6875 C346 1642 346 1642 343 1643 C342.32122019 1644.32720767 341.65579684 1645.66128691 341 1647 C339.3984375 1648.46484375 339.3984375 1648.46484375 337.375 1649.9375 C334.17825391 1652.32071853 331.05480561 1654.76116306 327.98828125 1657.30859375 C326.92697998 1658.18753296 326.92697998 1658.18753296 325.84423828 1659.08422852 C324.42071481 1660.26620097 323.00102271 1661.45280499 321.58544922 1662.64428711 C320.92174316 1663.19221924 320.25803711 1663.74015137 319.57421875 1664.3046875 C318.98213623 1664.79952637 318.39005371 1665.29436523 317.7800293 1665.80419922 C316 1667 316 1667 313.83911133 1667.48095703 C313.23220459 1667.65224121 312.62529785 1667.82352539 312 1668 C311.67 1668.99 311.34 1669.98 311 1671 C309.0390625 1672.60546875 309.0390625 1672.60546875 306.625 1674.1875 C305.83351563 1674.71730469 305.04203125 1675.24710938 304.2265625 1675.79296875 C302 1677 302 1677 299 1677 C299 1677.66 299 1678.32 299 1679 C294.61538462 1682 294.61538462 1682 292 1682 C292 1682.66 292 1683.32 292 1684 C291.1646875 1684.45439453 291.1646875 1684.45439453 290.3125 1684.91796875 C285.81594634 1687.38651595 281.41553112 1689.94771107 277.08203125 1692.69140625 C273.09617316 1695.1965891 269.04598504 1697.59364155 265 1700 C264.09507812 1700.5465625 263.19015625 1701.093125 262.2578125 1701.65625 C254.65864877 1706.18691672 246.85186613 1710.16469544 238.91455078 1714.05664062 C235.17624118 1715.89862332 231.46380037 1717.79264684 227.74609375 1719.67578125 C210.35756171 1728.06086285 191.53881945 1734.68372089 173 1740 C171.28296875 1740.51626953 171.28296875 1740.51626953 169.53125 1741.04296875 C132.80915044 1752.07746268 132.80915044 1752.07746268 114 1755 C113.27232422 1755.11794922 112.54464844 1755.23589844 111.79492188 1755.35742188 C106.54061155 1756.20319493 101.27819686 1756.93894608 95.99902344 1757.61181641 C94.00838617 1757.86947786 92.01935497 1758.13988471 90.03222656 1758.42333984 C60.05647231 1762.61956612 30.40791608 1761 0 1761 C0 1179.87 0 598.74 0 0 Z " fill="#1D2846" transform="translate(1445,360)"/>
<path d="M0 0 C257.4 0 514.8 0 780 0 C780 0.66 780 1.32 780 2 C775.52941176 6 775.52941176 6 773 6 C773 6.66 773 7.32 773 8 C771.1015625 9.65625 771.1015625 9.65625 768.625 11.5 C766.27095638 13.26366443 764.0808095 14.9191905 762 17 C758.30769231 20 758.30769231 20 756 20 C755.67 20.99 755.34 21.98 755 23 C754.34 23 753.68 23 753 23 C753 23.66 753 24.32 753 25 C750.76658661 26.9383786 748.52763358 28.76186519 746.1875 30.5625 C745.54490234 31.06974609 744.90230469 31.57699219 744.24023438 32.09960938 C741.45070406 34.27052883 739.39023304 35.86992232 736 37 C736 37.66 736 38.32 736 39 C731.52941176 43 731.52941176 43 729 43 C728.67 43.99 728.34 44.98 728 46 C725.78515625 48.04296875 725.78515625 48.04296875 723.0625 50.1875 C721.71865234 51.26064453 721.71865234 51.26064453 720.34765625 52.35546875 C718 54 718 54 716 54 C716 54.66 716 55.32 716 56 C711.52941176 60 711.52941176 60 709 60 C708.67 60.99 708.34 61.98 708 63 C706.64892578 64.30273438 706.64892578 64.30273438 704.9453125 65.59375 C704.02298828 66.30337891 704.02298828 66.30337891 703.08203125 67.02734375 C702.43621094 67.51332031 701.79039062 67.99929688 701.125 68.5 C699.85539765 69.46694967 698.58712306 70.43564566 697.3203125 71.40625 C696.75586426 71.83228516 696.19141602 72.25832031 695.60986328 72.69726562 C693.94066493 73.99063896 693.94066493 73.99063896 692.41748047 75.66210938 C691 77 691 77 689 77 C688.67 77.99 688.34 78.98 688 80 C685.78510121 81.89889884 683.5728491 83.68125681 681.25 85.4375 C680.00511435 86.39440899 678.7603211 87.35143821 677.515625 88.30859375 C676.34379881 89.20579293 675.17192683 90.10293229 674 91 C670.45078993 93.55023991 670.45078993 93.55023991 668 97 C667.01 97 666.02 97 665 97 C664.76925781 97.57878906 664.53851562 98.15757812 664.30078125 98.75390625 C662.67349767 101.5637803 660.77112805 102.98137981 658.1875 104.9375 C655.2953604 107.16703125 652.54881017 109.32302187 650.0625 112 C648 114 648 114 645 114 C644.73646729 114.60376465 644.47293457 115.2075293 644.20141602 115.82958984 C642.93455882 118.11822233 641.8513477 119.17142618 639.77734375 120.7265625 C639.15666016 121.2009375 638.53597656 121.6753125 637.89648438 122.1640625 C636.92678711 122.88722656 636.92678711 122.88722656 635.9375 123.625 C631.33688834 126.74859104 631.33688834 126.74859104 628 131 C627.01 131 626.02 131 625 131 C624.73646729 131.60376465 624.47293457 132.2075293 624.20141602 132.82958984 C622.93455882 135.11822233 621.8513477 136.17142618 619.77734375 137.7265625 C619.15666016 138.2009375 618.53597656 138.6753125 617.89648438 139.1640625 C617.25001953 139.64617187 616.60355469 140.12828125 615.9375 140.625 C611.33688834 143.74859104 611.33688834 143.74859104 608 148 C607.01 148.33 606.02 148.66 605 149 C604.154375 149.845625 603.30875 150.69125 602.4375 151.5625 C601.633125 152.366875 600.82875 153.17125 600 154 C599.34 154 598.68 154 598 154 C598 154.66 598 155.32 598 156 C596.55235738 157.29041914 595.03910851 158.50767134 593.5 159.6875 C590.27921688 162.19907842 587.11382754 164.72238942 584.0625 167.4375 C580.02247502 171.02589617 575.82864667 174.4094497 571.61328125 177.7890625 C568.916507 179.99929945 568.916507 179.99929945 566.35546875 182.7109375 C564 185 564 185 561 186 C559.31222995 187.64529262 557.64849306 189.31535577 556 191 C553.14417902 193.38375221 550.23925759 195.6960451 547.328125 198.01171875 C544.9448045 199.78562897 544.9448045 199.78562897 544 202 C543.01 202.33 542.02 202.66 541 203 C539.30971598 204.6427098 537.6458434 206.31276704 536 208 C534.26926387 209.4606364 532.51869276 210.89806295 530.75 212.3125 C527.25944092 215.13574632 523.83510716 217.99480452 520.5 221 C516.3093939 224.77004348 511.97111235 228.33333545 507.58984375 231.87890625 C505.32903939 233.73051525 503.12701614 235.62789635 500.9375 237.5625 C498 240 498 240 496 240 C496 240.66 496 241.32 496 242 C494.6875 243.625 494.6875 243.625 493 245 C492.01 245 491.02 245 490 245 C489.773125 245.57234375 489.54625 246.1446875 489.3125 246.734375 C487.64007755 249.62129471 485.61859815 251.19470494 483 253.25 C482.113125 253.95640625 481.22625 254.6628125 480.3125 255.390625 C478 257 478 257 476 257 C476 257.66 476 258.32 476 259 C474.00715862 260.3440093 472.00580329 261.67541292 470 263 C468.31183067 264.64488294 466.64646685 266.31337542 465 268 C463.78377123 269.11840167 462.55405989 270.22228729 461.3125 271.3125 C460.73113281 271.82425781 460.14976562 272.33601563 459.55078125 272.86328125 C458 274 458 274 456 274 C456 274.66 456 275.32 456 276 C454.00715862 277.3440093 452.00580329 278.67541292 450 280 C448.31183067 281.64488294 446.64646685 283.31337542 445 285 C443.78377123 286.11840167 442.55405989 287.22228729 441.3125 288.3125 C440.73113281 288.82425781 440.14976562 289.33601563 439.55078125 289.86328125 C438 291 438 291 436 291 C436 291.66 436 292.32 436 293 C434.00669158 294.34331654 432.00615134 295.67594012 430 297 C429.34 297.99 428.68 298.98 428 300 C427.01 300 426.02 300 425 300 C424.76925781 300.57878906 424.53851562 301.15757812 424.30078125 301.75390625 C422.67349767 304.5637803 420.77112805 305.98137981 418.1875 307.9375 C415.2953604 310.16703125 412.54881017 312.32302187 410.0625 315 C408 317 408 317 405 317 C404.67 317.99 404.34 318.98 404 320 C401.99609375 321.83203125 401.99609375 321.83203125 399.4375 323.8125 C398.53515625 324.51632812 397.6328125 325.22015625 396.703125 325.9453125 C393.78995634 328.15965746 390.85914222 330.3462558 387.88671875 332.48046875 C385.85824442 334.0581719 385.85824442 334.0581719 383.67578125 336.328125 C380.74635663 339.25327308 377.67278681 341.90869572 374.5 344.5625 C373.94441406 345.03107422 373.38882812 345.49964844 372.81640625 345.98242188 C371.2163968 347.32831218 369.60877695 348.66461331 368 350 C367.0821875 350.77214844 366.164375 351.54429687 365.21875 352.33984375 C363 354 363 354 361 354 C360.67 354.99 360.34 355.98 360 357 C358.32675367 358.52216957 356.58675868 359.97187505 354.8125 361.375 C353.81992187 362.16519531 352.82734375 362.95539063 351.8046875 363.76953125 C350.87914062 364.50558594 349.95359375 365.24164062 349 366 C347.80855809 367.01622986 346.62001126 368.03589196 345.4375 369.0625 C343 371 343 371 341 371 C340.67 371.99 340.34 372.98 340 374 C337.00745382 372.59808647 334.4045389 370.96632511 331.75 369 C330.69039062 368.2265625 330.69039062 368.2265625 329.609375 367.4375 C329.07828125 366.963125 328.5471875 366.48875 328 366 C328 365.34 328 364.68 328 364 C326.68 363.67 325.36 363.34 324 363 C324 362.34 324 361.68 324 361 C323.41605469 360.72800781 322.83210938 360.45601562 322.23046875 360.17578125 C320.02355764 359.0124183 318.25710112 357.74554755 316.3125 356.1875 C313.11957416 353.65036028 309.89701786 351.16307606 306.6328125 348.71875 C305.86155029 348.13843018 305.09028809 347.55811035 304.2956543 346.96020508 C302.73031484 345.78348597 301.16148341 344.61139703 299.58911133 343.4440918 C298.86747803 342.89922119 298.14584473 342.35435059 297.40234375 341.79296875 C296.74741943 341.3033667 296.09249512 340.81376465 295.41772461 340.30932617 C294.94987549 339.87724854 294.48202637 339.4451709 294 339 C294 338.34 294 337.68 294 337 C292.68 336.67 291.36 336.34 290 336 C290 335.34 290 334.68 290 334 C289.01 334 288.02 334 287 334 C285.82379887 332.85740461 284.65500358 331.70542563 283.5390625 330.50390625 C281.11642642 328.13660957 278.34326258 326.27189744 275.57421875 324.33203125 C275.05472656 323.89246094 274.53523438 323.45289063 274 323 C274 322.34 274 321.68 274 321 C272.68 320.67 271.36 320.34 270 320 C270 319.34 270 318.68 270 318 C269.195625 317.62875 269.195625 317.62875 268.375 317.25 C264.37362964 315.1440156 260.85442865 312.8673311 257.671875 309.63671875 C254.99122691 306.99134235 252.2324354 304.83587052 249.1875 302.625 C245.71959065 300.0630451 242.33236469 297.50677908 239.125 294.625 C235.61126913 291.47576404 231.95971719 288.53770764 228.25 285.625 C227.65445313 285.15731201 227.05890625 284.68962402 226.4453125 284.20776367 C223.46941143 281.8848452 220.47296307 279.59731835 217.4296875 277.36328125 C216.87249023 276.95319824 216.31529297 276.54311523 215.74121094 276.12060547 C214.20986167 274.99962079 212.67152976 273.88819316 211.1328125 272.77734375 C210.42898438 272.19082031 209.72515625 271.60429688 209 271 C209 270.34 209 269.68 209 269 C208.01 269 207.02 269 206 269 C204.82379887 267.85740461 203.65500358 266.70542563 202.5390625 265.50390625 C200.11642642 263.13660957 197.34326258 261.27189744 194.57421875 259.33203125 C194.05472656 258.89246094 193.53523437 258.45289063 193 258 C193 257.34 193 256.68 193 256 C191.68 255.67 190.36 255.34 189 255 C189 254.34 189 253.68 189 253 C188.41605469 252.72800781 187.83210937 252.45601562 187.23046875 252.17578125 C185.02355764 251.0124183 183.25710112 249.74554755 181.3125 248.1875 C178.11957416 245.65036028 174.89701786 243.16307606 171.6328125 240.71875 C170.86155029 240.13843018 170.09028809 239.55811035 169.2956543 238.96020508 C167.73031484 237.78348597 166.16148341 236.61139703 164.58911133 235.4440918 C163.50666138 234.62678589 163.50666138 234.62678589 162.40234375 233.79296875 C161.74741943 233.3033667 161.09249512 232.81376465 160.41772461 232.30932617 C159.71595093 231.66120972 159.71595093 231.66120972 159 231 C159 230.34 159 229.68 159 229 C157.68 228.67 156.36 228.34 155 228 C155 227.34 155 226.68 155 226 C154.01 226 153.02 226 152 226 C150.82379887 224.85740461 149.65500358 223.70542563 148.5390625 222.50390625 C146.11642642 220.13660957 143.34326258 218.27189744 140.57421875 216.33203125 C140.05472656 215.89246094 139.53523437 215.45289063 139 215 C139 214.34 139 213.68 139 213 C137.68 212.67 136.36 212.34 135 212 C135 211.34 135 210.68 135 210 C134.195625 209.62875 134.195625 209.62875 133.375 209.25 C129.37362964 207.1440156 125.85442865 204.8673311 122.671875 201.63671875 C119.99122691 198.99134235 117.2324354 196.83587052 114.1875 194.625 C109.90753277 191.4647308 105.85337449 188.2001723 101.890625 184.65625 C97.03841301 180.40555189 91.80787259 176.60401052 86.6484375 172.73828125 C85.87491943 172.1551416 85.10140137 171.57200195 84.30444336 170.97119141 C82.73646691 169.78958894 81.16439725 168.6133971 79.58813477 167.44287109 C78.50616821 166.62616943 78.50616821 166.62616943 77.40234375 165.79296875 C76.74741943 165.3033667 76.09249512 164.81376465 75.41772461 164.30932617 C74.94987549 163.87724854 74.48202637 163.4451709 74 163 C74 162.34 74 161.68 74 161 C73.01 161 72.02 161 71 161 C69.82379887 159.85740461 68.65500358 158.70542563 67.5390625 157.50390625 C65.11642642 155.13660957 62.34326258 153.27189744 59.57421875 151.33203125 C59.05472656 150.89246094 58.53523437 150.45289063 58 150 C58 149.34 58 148.68 58 148 C56.68 147.67 55.36 147.34 54 147 C54 146.34 54 145.68 54 145 C53.41605469 144.72800781 52.83210937 144.45601562 52.23046875 144.17578125 C50.02355764 143.0124183 48.25710112 141.74554755 46.3125 140.1875 C43.11957416 137.65036028 39.89701786 135.16307606 36.6328125 132.71875 C35.86155029 132.13843018 35.09028809 131.55811035 34.2956543 130.96020508 C32.73031484 129.78348597 31.16148341 128.61139703 29.58911133 127.4440918 C28.86747803 126.89922119 28.14584473 126.35435059 27.40234375 125.79296875 C26.74741943 125.3033667 26.09249512 124.81376465 25.41772461 124.30932617 C24.94987549 123.87724854 24.48202637 123.4451709 24 123 C24 122.34 24 121.68 24 121 C22.68 120.67 21.36 120.34 20 120 C20 119.34 20 118.68 20 118 C19.01 118 18.02 118 17 118 C15.82379887 116.85740461 14.65500358 115.70542563 13.5390625 114.50390625 C11.11642642 112.13660957 8.34326258 110.27189744 5.57421875 108.33203125 C5.05472656 107.89246094 4.53523437 107.45289063 4 107 C4 106.34 4 105.68 4 105 C2.68 104.67 1.36 104.34 0 104 C0 69.68 0 35.36 0 0 Z " fill="#1D2846" transform="translate(532,360)"/>
</svg>
